<svg id="calendar" xmlns="http://www.w3.org/2000/svg" width="83.943" height="83.943" viewBox="0 0 83.943 83.943">
  <path id="Path_203" data-name="Path 203" d="M83.944,52.58v12.3L78.287,69.8H14.281L0,64.877V52.58A7.367,7.367,0,0,1,7.378,45.2h7.69l3.1-2.164L20.035,45.2H34.742L38.283,42.6,39.709,45.2H54.416l2.607-2.9,2.361,2.9H76.566a7.367,7.367,0,0,1,7.378,7.378Zm0,0" transform="translate(0 -35.366)" fill="#85f2dc"/>
  <path id="Path_204" data-name="Path 204" d="M297.972,52.58v12.3L292.315,69.8H256V45.2h12.444l2.607-2.9,2.361,2.9h17.182a7.367,7.367,0,0,1,7.378,7.378Zm0,0" transform="translate(-214.028 -35.366)" fill="#66d2bc"/>
  <path id="Path_205" data-name="Path 205" d="M106.51,12.3c0,7.033-3.2,12.3-7.378,12.3a2.459,2.459,0,1,1,0-4.919c.59,0,2.459-2.607,2.459-7.378a12.8,12.8,0,0,0-.2-2.459c-.443-3.2-1.771-4.919-2.263-4.919S97.312,6.64,96.87,9.837H91.9C92.541,4.082,95.443,0,99.132,0s6.591,4.082,7.23,9.837A19.968,19.968,0,0,1,106.51,12.3Zm0,0" transform="translate(-76.835)" fill="#596c76"/>
  <path id="Path_206" data-name="Path 206" d="M226.51,12.3c0,7.033-3.2,12.3-7.378,12.3a2.459,2.459,0,0,1,0-4.919c.59,0,2.459-2.607,2.459-7.378a12.8,12.8,0,0,0-.2-2.459c-.443-3.2-1.771-4.919-2.263-4.919s-1.82,1.721-2.263,4.919H211.9C212.541,4.082,215.443,0,219.132,0s6.591,4.082,7.23,9.837A19.966,19.966,0,0,1,226.51,12.3Zm0,0" transform="translate(-177.16)" fill="#596c76"/>
  <path id="Path_207" data-name="Path 207" d="M346.51,12.3c0,7.033-3.2,12.3-7.378,12.3a2.459,2.459,0,0,1,0-4.919c.591,0,2.459-2.607,2.459-7.378a12.8,12.8,0,0,0-.2-2.459c-.443-3.2-1.771-4.919-2.263-4.919s-1.82,1.721-2.263,4.919H331.9C332.541,4.082,335.443,0,339.132,0s6.591,4.082,7.23,9.837A19.96,19.96,0,0,1,346.51,12.3Zm0,0" transform="translate(-277.486)" fill="#465a61"/>
  <path id="Path_208" data-name="Path 208" d="M263.378,12.3c0,7.033-3.2,12.3-7.378,12.3V19.674c.591,0,2.459-2.607,2.459-7.378a12.8,12.8,0,0,0-.2-2.459c-.443-3.2-1.771-4.919-2.263-4.919V0c3.689,0,6.591,4.082,7.23,9.837A19.966,19.966,0,0,1,263.378,12.3Zm0,0" transform="translate(-214.028)" fill="#465a61"/>
  <path id="Path_209" data-name="Path 209" d="M0,180v47.054a7.368,7.368,0,0,0,7.378,7.378H76.566a7.368,7.368,0,0,0,7.378-7.378V180Zm0,0" transform="translate(0 -150.489)" fill="#deecf1"/>
  <path id="Path_210" data-name="Path 210" d="M297.972,180v47.054a7.368,7.368,0,0,1-7.378,7.378H256V180Zm0,0" transform="translate(-214.028 -150.489)" fill="#c6e2e7"/>
  <path id="Path_211" data-name="Path 211" d="M76,256h59.023v29.675H76Zm0,0" transform="translate(-63.54 -214.028)" fill="#deecf1"/>
  <path id="Path_212" data-name="Path 212" d="M122.482,241H63.459A2.435,2.435,0,0,0,61,243.459v29.675a2.435,2.435,0,0,0,2.459,2.459h59.023a2.435,2.435,0,0,0,2.459-2.459V243.459A2.435,2.435,0,0,0,122.482,241ZM75.756,270.675H65.919v-10h9.837Zm0-14.92H65.919v-9.837h9.837Zm14.756,14.92H80.674v-10h9.837Zm0-14.92H80.674v-9.837h9.837Zm14.756,14.92H95.43v-10h9.837Zm0-14.92H95.43v-9.837h9.837Zm14.756,14.92h-9.837v-10h9.837Zm0-14.92h-9.837v-9.837h9.837Zm0,0" transform="translate(-50.999 -201.488)" fill="#a8d3d8"/>
  <path id="Path_213" data-name="Path 213" d="M256,256h29.511v29.675H256Zm0,0" transform="translate(-214.028 -214.028)" fill="#c6e2e7"/>
  <path id="Path_214" data-name="Path 214" d="M285.511,241H256v34.594h29.511a2.435,2.435,0,0,0,2.459-2.459V243.459A2.435,2.435,0,0,0,285.511,241ZM268.3,270.675h-9.837v-10H268.3Zm0-14.92h-9.837v-9.837H268.3Zm14.756,14.92h-9.837v-10h9.837Zm0-14.92h-9.837v-9.837h9.837Zm0,0" transform="translate(-214.028 -201.488)" fill="#8ebac5"/>
</svg>
