<svg xmlns="http://www.w3.org/2000/svg" width="221.625" height="221.626" viewBox="0 0 221.625 221.626">
  <g id="dna" transform="translate(-0.001)">
    <path id="Path_31" data-name="Path 31" d="M210.14,240.669a11.412,11.412,0,0,1-8.123-3.364l-4.625-4.625a104.521,104.521,0,0,0-74.069-30.625,103.939,103.939,0,0,0-11.259.611,128.106,128.106,0,0,1-56.2-6.47A128.333,128.333,0,0,1,7.991,166.061l-4.626-4.625A11.487,11.487,0,0,1,19.611,145.19l4.625,4.625A104.521,104.521,0,0,0,98.305,180.44a103.939,103.939,0,0,0,11.259-.611,128.106,128.106,0,0,1,56.2,6.47,128.333,128.333,0,0,1,47.875,30.136l4.625,4.625a11.488,11.488,0,0,1-8.122,19.61Z" transform="translate(0 -80.435)" fill="#38648c"/>
    <path id="Path_32" data-name="Path 32" d="M248.752,242.251a134.924,134.924,0,0,0,.792-14.088q-4.144-.266-8.323-.268a126.881,126.881,0,0,0-13.743.746,103.939,103.939,0,0,1-11.259.611q-3.5,0-6.975-.231c-.046,2.958-.22,5.912-.542,8.848a134.935,134.935,0,0,0-.792,14.088q4.144.266,8.323.268a126.866,126.866,0,0,0,13.743-.746,103.939,103.939,0,0,1,11.259-.611q3.5,0,6.975.231C248.256,248.141,248.431,245.187,248.752,242.251Z" transform="translate(-117.913 -129.248)" opacity="0.15"/>
    <path id="Path_33" data-name="Path 33" d="M71.1,166.475a3.247,3.247,0,0,1-2.3-5.542L96.637,133.1a3.246,3.246,0,0,1,4.591,4.591L73.4,165.524A3.236,3.236,0,0,1,71.1,166.475Z" transform="translate(-38.482 -74.947)" fill="#76b7eb"/>
    <path id="Path_34" data-name="Path 34" d="M113.153,193.43a3.247,3.247,0,0,1-2.3-5.542l23.271-23.271a3.246,3.246,0,0,1,4.591,4.591l-23.271,23.271A3.234,3.234,0,0,1,113.153,193.43Z" transform="translate(-62.331 -92.821)" fill="#7fdbd5"/>
    <path id="Path_35" data-name="Path 35" d="M159.929,218.341a3.246,3.246,0,0,1-2.3-5.542L174.3,196.133a3.246,3.246,0,0,1,4.591,4.591L162.225,217.39A3.239,3.239,0,0,1,159.929,218.341Z" transform="translate(-88.86 -110.695)" fill="#76b7eb"/>
    <path id="Path_36" data-name="Path 36" d="M135.4,102.179a3.246,3.246,0,0,1-2.3-5.542l27.832-27.832a3.246,3.246,0,0,1,4.591,4.591l-27.832,27.832A3.237,3.237,0,0,1,135.4,102.179Z" transform="translate(-74.948 -38.483)" fill="#7fdbd5"/>
    <path id="Path_37" data-name="Path 37" d="M166.914,139.669a3.246,3.246,0,0,1-2.3-5.542l23.271-23.271a3.246,3.246,0,0,1,4.591,4.591l-23.271,23.271A3.235,3.235,0,0,1,166.914,139.669Z" transform="translate(-92.821 -62.331)" fill="#f28b74"/>
    <path id="Path_38" data-name="Path 38" d="M198.43,179.84a3.246,3.246,0,0,1-2.3-5.542L212.8,157.632a3.246,3.246,0,0,1,4.591,4.591l-16.666,16.666A3.239,3.239,0,0,1,198.43,179.84Z" transform="translate(-110.695 -88.86)" fill="#287d99"/>
    <path id="Path_39" data-name="Path 39" d="M400.372,365.326a3.246,3.246,0,0,1-2.3-5.542L427.3,330.559a3.246,3.246,0,0,1,4.591,4.591l-29.225,29.225A3.237,3.237,0,0,1,400.372,365.326Z" transform="translate(-225.224 -186.933)" fill="#f28b74"/>
    <path id="Path_40" data-name="Path 40" d="M368.856,335.636a3.246,3.246,0,0,1-2.3-5.542l27.832-27.832a3.246,3.246,0,0,1,4.591,4.591l-27.832,27.832A3.237,3.237,0,0,1,368.856,335.636Z" transform="translate(-207.35 -170.885)" fill="#76b7eb"/>
    <path id="Path_41" data-name="Path 41" d="M337.341,310.1a3.247,3.247,0,0,1-2.3-5.542l23.271-23.271a3.246,3.246,0,0,1,4.591,4.591l-23.271,23.271A3.234,3.234,0,0,1,337.341,310.1Z" transform="translate(-189.477 -158.986)" fill="#7fdbd5"/>
    <path id="Path_42" data-name="Path 42" d="M305.826,287.236a3.246,3.246,0,0,1-2.3-5.542L320.2,265.028a3.246,3.246,0,0,1,4.591,4.591l-16.666,16.666A3.239,3.239,0,0,1,305.826,287.236Z" transform="translate(-171.603 -149.768)" fill="#76b7eb"/>
    <path id="Path_43" data-name="Path 43" d="M332.856,432.842a3.246,3.246,0,0,1-2.3-5.542l29.225-29.225a3.246,3.246,0,0,1,4.591,4.591l-29.225,29.225A3.234,3.234,0,0,1,332.856,432.842Z" transform="translate(-186.933 -225.224)" fill="#38648c"/>
    <path id="Path_44" data-name="Path 44" d="M304.559,399.933a3.247,3.247,0,0,1-2.3-5.542l27.832-27.832a3.246,3.246,0,1,1,4.591,4.591l-27.832,27.832A3.235,3.235,0,0,1,304.559,399.933Z" transform="translate(-170.885 -207.35)" fill="#7fdbd5"/>
    <path id="Path_45" data-name="Path 45" d="M283.58,363.857a3.246,3.246,0,0,1-2.3-5.542l23.271-23.271a3.246,3.246,0,1,1,4.591,4.591l-23.271,23.271A3.236,3.236,0,0,1,283.58,363.857Z" transform="translate(-158.987 -189.477)" fill="#f28b74"/>
    <path id="Path_46" data-name="Path 46" d="M267.325,325.737a3.246,3.246,0,0,1-2.3-5.542l16.666-16.666a3.246,3.246,0,1,1,4.591,4.591L269.62,324.786A3.239,3.239,0,0,1,267.325,325.737Z" transform="translate(-149.768 -171.603)" fill="#287d99"/>
    <path id="Path_47" data-name="Path 47" d="M229.191,221.626a11.412,11.412,0,0,1-8.123-3.364l-4.625-4.625a127.565,127.565,0,0,1-36.606-104.073,104.589,104.589,0,0,0-30.013-85.329L145.2,19.61A11.487,11.487,0,1,1,161.444,3.364l4.625,4.625a127.563,127.563,0,0,1,36.606,104.073,104.589,104.589,0,0,0,30.013,85.329l4.625,4.625a11.487,11.487,0,0,1-8.122,19.61Z" transform="translate(-80.443)" fill="#76b7eb"/>
    <path id="Path_48" data-name="Path 48" d="M231.556,331.328a127.24,127.24,0,0,0,35.768,70.217l4.625,4.625a11.488,11.488,0,0,0,16.245,0q.206-.206.4-.42C273.029,406.16,241.493,364.047,231.556,331.328Z" transform="translate(-131.323 -187.908)" opacity="0.1"/>
    <g id="Group_15" data-name="Group 15" transform="translate(24.094 24.09)">
      <ellipse id="Ellipse_8" data-name="Ellipse 8" cx="6.282" cy="7.888" rx="6.282" ry="7.888" transform="translate(8.884 50.273) rotate(-135)" fill="#f28b74"/>
      <ellipse id="Ellipse_9" data-name="Ellipse 9" cx="6.282" cy="7.888" rx="6.282" ry="7.888" transform="translate(41.389 0) rotate(45)" fill="#f28b74"/>
    </g>
    <g id="Group_16" data-name="Group 16" transform="translate(27.716 27.715)">
      <path id="Path_49" data-name="Path 49" d="M69.245,127.317a3.235,3.235,0,0,1-2.3-.951l-1.97-1.97a3.246,3.246,0,0,1,4.591-4.591l1.97,1.97a3.246,3.246,0,0,1-2.3,5.542Z" transform="translate(-64.029 -95.122)" fill="#495059"/>
      <path id="Path_50" data-name="Path 50" d="M124.071,72.491a3.235,3.235,0,0,1-2.3-.951l-1.97-1.97a3.246,3.246,0,0,1,4.591-4.591l1.97,1.97a3.246,3.246,0,0,1-2.3,5.542Z" transform="translate(-95.123 -64.028)" fill="#495059"/>
      <path id="Path_51" data-name="Path 51" d="M92.617,101.73q-.313,0-.627-.022a3.246,3.246,0,1,1,.445-6.477,2.616,2.616,0,0,0,2.8-2.8,3.246,3.246,0,1,1,6.477-.445,9.11,9.11,0,0,1-9.091,9.74Z" transform="translate(-78.172 -78.172)" fill="#495059"/>
    </g>
  </g>
</svg>
