<svg xmlns="http://www.w3.org/2000/svg" width="245.612" height="266.112" viewBox="0 0 245.612 266.112">
  <g id="emergency-call" transform="translate(-32.984 89.506) rotate(-31)">
    <path id="Path_52" data-name="Path 52" d="M165.238,229.155H48.58a9.1,9.1,0,0,1-9.1-9.1V9.1A9.1,9.1,0,0,1,48.58,0H165.238a9.1,9.1,0,0,1,9.1,9.1V220.054A9.1,9.1,0,0,1,165.238,229.155Z" transform="translate(-0.552)" fill="#76b7eb"/>
    <path id="Path_53" data-name="Path 53" d="M75.773,227.81V72.265A4.928,4.928,0,0,1,80.7,67.336h92.514a4.928,4.928,0,0,1,4.929,4.929V227.81a4.928,4.928,0,0,1-4.929,4.929H80.7A4.929,4.929,0,0,1,75.773,227.81Z" transform="translate(-20.602 -37.199)" fill="#38648c"/>
    <g id="Group_17" data-name="Group 17" transform="translate(65.961 173.358)">
      <path id="Path_54" data-name="Path 54" d="M181.578,394.047H143.887a3.357,3.357,0,0,1,0-6.714h37.691a3.357,3.357,0,1,1,0,6.714Z" transform="translate(-122.337 -387.333)" fill="#fff"/>
      <path id="Path_55" data-name="Path 55" d="M116.9,470.366H103.238a3.357,3.357,0,1,1,0-6.714H116.9a3.357,3.357,0,1,1,0,6.714Z" transform="translate(-99.881 -429.494)" fill="#fff"/>
      <path id="Path_56" data-name="Path 56" d="M251.887,470.366H238.226a3.357,3.357,0,1,1,0-6.714h13.662a3.357,3.357,0,0,1,0,6.714Z" transform="translate(-174.453 -429.494)" fill="#fff"/>
    </g>
    <path id="Path_57" data-name="Path 57" d="M183.431,32.882H161.559a3.357,3.357,0,1,1,0-6.714h21.872a3.357,3.357,0,0,1,0,6.714Z" transform="translate(-66.138 -14.456)" fill="#38648c"/>
    <circle id="Ellipse_10" data-name="Ellipse 10" cx="37.385" cy="37.385" r="37.385" transform="translate(68.973 87.007)" fill="#fff"/>
    <path id="Path_58" data-name="Path 58" d="M170.084,241.05V229.656a1.894,1.894,0,0,0-1.894-1.894H156.657a1.894,1.894,0,0,0-1.894,1.894V241.05a1.5,1.5,0,0,1-1.5,1.5H141.866a1.894,1.894,0,0,0-1.894,1.894v11.534a1.893,1.893,0,0,0,1.894,1.894H153.26a1.5,1.5,0,0,1,1.5,1.5v11.395a1.894,1.894,0,0,0,1.894,1.894h11.534a1.894,1.894,0,0,0,1.894-1.894V259.377a1.5,1.5,0,0,1,1.5-1.5h11.395a1.894,1.894,0,0,0,1.894-1.894V244.447a1.893,1.893,0,0,0-1.894-1.894H171.587A1.5,1.5,0,0,1,170.084,241.05Z" transform="translate(-56.067 -125.823)" fill="#f28b74"/>
    <path id="Path_59" data-name="Path 59" d="M429.584,247.039a3.357,3.357,0,0,1-2.374-5.73,45.991,45.991,0,0,0,0-65.042,3.357,3.357,0,1,1,4.747-4.747,52.708,52.708,0,0,1,0,74.538A3.351,3.351,0,0,1,429.584,247.039Z" transform="translate(-214.204 -94.21)" fill="#38648c"/>
    <path id="Path_60" data-name="Path 60" d="M376.838,252.569a3.357,3.357,0,0,1-2.373-5.731,12.588,12.588,0,0,0,0-17.828,3.357,3.357,0,0,1,4.746-4.748,19.3,19.3,0,0,1,0,27.322A3.344,3.344,0,0,1,376.838,252.569Z" transform="translate(-185.066 -123.347)" fill="#b3e7ff"/>
    <path id="Path_61" data-name="Path 61" d="M403.192,249.8a3.357,3.357,0,0,1-2.373-5.731,29.25,29.25,0,0,0,0-41.418,3.357,3.357,0,0,1,4.746-4.748,35.963,35.963,0,0,1,0,50.914A3.343,3.343,0,0,1,403.192,249.8Z" transform="translate(-199.624 -108.788)" fill="#76b7eb"/>
    <g id="Group_18" data-name="Group 18" transform="translate(65.473 56.869)">
      <ellipse id="Ellipse_11" data-name="Ellipse 11" cx="11.02" cy="8.775" rx="11.02" ry="8.775" transform="translate(0)" fill="#f28b74"/>
      <ellipse id="Ellipse_12" data-name="Ellipse 12" cx="11.02" cy="8.775" rx="11.02" ry="8.775" transform="translate(59.728)" fill="#f28b74"/>
    </g>
    <g id="Group_19" data-name="Group 19" transform="translate(79.557 49.643)">
      <path id="Path_62" data-name="Path 62" d="M133.615,121.522a3.357,3.357,0,0,1-3.357-3.357v-3.891a3.357,3.357,0,0,1,6.714,0v3.891A3.357,3.357,0,0,1,133.615,121.522Z" transform="translate(-130.258 -110.917)" fill="#fff"/>
      <path id="Path_63" data-name="Path 63" d="M238.372,121.522a3.357,3.357,0,0,1-3.357-3.357v-3.891a3.357,3.357,0,1,1,6.714,0v3.891A3.357,3.357,0,0,1,238.372,121.522Z" transform="translate(-188.129 -110.917)" fill="#fff"/>
      <path id="Path_64" data-name="Path 64" d="M178.365,129.526a11.553,11.553,0,0,1-8.711-3.967,3.357,3.357,0,1,1,5.061-4.411,4.834,4.834,0,0,0,7.3,0,3.357,3.357,0,0,1,5.062,4.411A11.557,11.557,0,0,1,178.365,129.526Z" transform="translate(-151.565 -115.933)" fill="#fff"/>
    </g>
    <path id="Path_65" data-name="Path 65" d="M38.48,9.1V220.054a9.1,9.1,0,0,0,9.1,9.1h99.665C86.645,185.933,69.389,54.132,68.554,0H47.581A9.1,9.1,0,0,0,38.48,9.1Z" opacity="0.15"/>
    <circle id="Ellipse_13" data-name="Ellipse 13" cx="3.35" cy="3.35" r="3.35" transform="translate(128.507 11.719)" fill="#fff"/>
  </g>
</svg>
