<svg xmlns="http://www.w3.org/2000/svg" width="176.885" height="220.184" viewBox="0 0 176.885 220.184">
  <g id="heart" transform="translate(-16.442 -32.285) rotate(18)">
    <path id="Path_66" data-name="Path 66" d="M154.627,71.281a11.994,11.994,0,0,1-11.994-11.994V11.994a11.994,11.994,0,0,1,23.989,0V59.287A11.994,11.994,0,0,1,154.627,71.281Z" transform="translate(-38.156)" fill="#38648c"/>
    <path id="Path_67" data-name="Path 67" d="M166.622,60.1V45.782C150.705,47.43,149.241,14.375,151.2,1.31A12,12,0,0,0,142.633,12.8V60.1a11.995,11.995,0,0,0,23.989,0Z" transform="translate(-38.156 -0.809)" opacity="0.1"/>
    <path id="Path_68" data-name="Path 68" d="M179.818,126.36a11.994,11.994,0,0,1-11.994-11.994c0-12,7.862-22.135,20.029-25.807a34.369,34.369,0,0,1,22.209,1.024,42.086,42.086,0,0,1,19.655,16.353,11.994,11.994,0,1,1-19.983,13.272c-4.98-7.5-11.166-8.825-14.95-7.683-.894.27-2.972,1.087-2.972,2.842A12,12,0,0,1,179.818,126.36Z" transform="translate(-53.719 -53.861)" fill="#f28b74"/>
    <path id="Path_69" data-name="Path 69" d="M179.818,126.36a11.994,11.994,0,0,1-11.994-11.994c0-12,7.862-22.135,20.029-25.807a34.369,34.369,0,0,1,22.209,1.024,42.086,42.086,0,0,1,19.655,16.353,11.994,11.994,0,1,1-19.983,13.272c-4.98-7.5-11.166-8.825-14.95-7.683-.894.27-2.972,1.087-2.972,2.842A12,12,0,0,1,179.818,126.36Z" transform="translate(-53.719 -53.861)" fill="#740000" opacity="0.2"/>
    <path id="Path_70" data-name="Path 70" d="M324.015,30.143a11.994,11.994,0,0,0-13.5-10.274,41.242,41.242,0,0,0-11.011,3.2,1.131,1.131,0,0,1-1.577-.868,11.994,11.994,0,0,0-11.716-10.216,12.227,12.227,0,0,0-12.138,12.259V76.971A12.212,12.212,0,0,0,286.3,89.233a12,12,0,0,0,11.763-11.992V57.074a8.1,8.1,0,0,1,2.02-5.36c2.875-3.261,8.262-7.341,13.657-8.073A12,12,0,0,0,324.015,30.143Z" transform="translate(-119.361 -7.402)" fill="#38648c"/>
    <path id="Path_71" data-name="Path 71" d="M286.3,89.437a12,12,0,0,0,11.763-11.992V61.726c-17.4,1.284-16.2-39.076-13.688-49.415a12.3,12.3,0,0,0-10.3,12.134V77.174A12.212,12.212,0,0,0,286.3,89.437Z" transform="translate(-119.36 -7.606)" opacity="0.1"/>
    <g id="Group_20" data-name="Group 20" transform="translate(178.649 47.262)">
      <path id="Path_72" data-name="Path 72" d="M336.7,125.2Z" transform="translate(-336.698 -124.609)" fill="#38648c"/>
      <path id="Path_73" data-name="Path 73" d="M336.839,123.656v0Z" transform="translate(-336.785 -123.656)" fill="#38648c"/>
    </g>
    <path id="Path_74" data-name="Path 74" d="M172.8,138.38a42.822,42.822,0,0,0-14.513,2.2,11.233,11.233,0,0,1-10.037-1.443,42.647,42.647,0,0,0-24.613-7.715c-24.1.045-43.172,20.354-42.754,44.445.727,41.9,30.022,67.493,52,89.47a39.408,39.408,0,0,0,55.731,0c14.568-14.568,26.035-47.876,26.132-83.656C214.8,158.3,196.176,138.862,172.8,138.38Z" transform="translate(0 -81.192)" fill="#ff6a6a"/>
    <g id="Group_21" data-name="Group 21" transform="translate(106.869 115.589)">
      <ellipse id="Ellipse_14" data-name="Ellipse 14" cx="11.986" cy="9.545" rx="11.986" ry="9.545" fill="#fff"/>
      <ellipse id="Ellipse_15" data-name="Ellipse 15" cx="11.986" cy="9.545" rx="11.986" ry="9.545" transform="translate(64.963)" fill="#fff"/>
    </g>
    <g id="Group_22" data-name="Group 22" transform="translate(117.989 105.854)">
      <path id="Path_75" data-name="Path 75" d="M180.854,287.835a2.867,2.867,0,0,1-2.867-2.867v-5.144a2.867,2.867,0,1,1,5.733,0v5.144A2.867,2.867,0,0,1,180.854,287.835Z" transform="translate(-177.987 -276.957)" fill="#495059"/>
      <path id="Path_76" data-name="Path 76" d="M251.2,302.863h0a8.684,8.684,0,0,1-8.684-8.684v-6.313a2.371,2.371,0,0,1,2.37-2.37H257.51a2.371,2.371,0,0,1,2.37,2.37v6.313A8.683,8.683,0,0,1,251.2,302.863Z" transform="translate(-217.851 -282.232)" fill="#495059"/>
      <path id="Path_77" data-name="Path 77" d="M340.346,287.835a2.867,2.867,0,0,1-2.867-2.867v-5.144a2.867,2.867,0,1,1,5.733,0v5.144A2.867,2.867,0,0,1,340.346,287.835Z" transform="translate(-276.521 -276.957)" fill="#495059"/>
    </g>
    <path id="Path_78" data-name="Path 78" d="M163.194,148.661c-.087,0-.175,0-.264-.012a2.866,2.866,0,0,1-2.594-3.115c1.065-11.659,10.163-19.031,15.648-20.94a2.867,2.867,0,1,1,1.884,5.415c-4.314,1.5-11.055,7.639-11.823,16.047A2.866,2.866,0,0,1,163.194,148.661Z" transform="translate(-49.085 -76.875)" fill="#38648c"/>
    <g id="Group_23" data-name="Group 23" transform="translate(172.79 54.478)">
      <path id="Path_79" data-name="Path 79" d="M337.211,165.282H337.2a2.867,2.867,0,0,1-2.853-2.88c.032-6.673-7.785-12.693-11.355-14.414a2.867,2.867,0,0,1,2.49-5.164,32.582,32.582,0,0,1,8.749,6.611c3.848,4.1,5.871,8.593,5.85,13A2.867,2.867,0,0,1,337.211,165.282Z" transform="translate(-321.367 -142.538)" fill="#f5d7b7"/>
      <path id="Path_80" data-name="Path 80" d="M334.914,177.778a2.868,2.868,0,0,1-2.669-3.91,17.389,17.389,0,0,1,7.2-8.733,2.867,2.867,0,0,1,2.721,5.047,11.91,11.91,0,0,0-4.579,5.772A2.867,2.867,0,0,1,334.914,177.778Z" transform="translate(-327.965 -156.286)" fill="#f5d7b7"/>
    </g>
    <path id="Path_81" data-name="Path 81" d="M177.637,175.266a2.867,2.867,0,0,1-2.853-2.622c-.6-6.948-5.011-11.259-7.832-12.461a2.866,2.866,0,1,1,2.247-5.274,17.89,17.89,0,0,1,7.2,6.041,22.374,22.374,0,0,1,4.1,11.2,2.866,2.866,0,0,1-2.611,3.1Q177.76,175.266,177.637,175.266Z" transform="translate(-52.103 -95.56)" fill="#38648c"/>
    <path id="Path_82" data-name="Path 82" d="M132.877,271.221a39.408,39.408,0,0,0,55.731,0,52.328,52.328,0,0,0,5.842-7.075c-69.495,4.954-97.663-86.805-87.863-123.2a43.877,43.877,0,0,0-25.71,40.806C81.605,223.652,110.9,249.244,132.877,271.221Z" transform="translate(0 -87.075)" opacity="0.1"/>
  </g>
</svg>
