<svg xmlns="http://www.w3.org/2000/svg" width="62.512" height="143.177" viewBox="0 0 62.512 143.177">
  <g id="Component_14_1" data-name="Component 14 – 1" transform="translate(0.14)">
    <path id="Path_17" data-name="Path 17" d="M10.958-.009A10.83,10.83,0,0,1,21.806,10.864l-.128,65.362A10.869,10.869,0,1,1-.06,76.269L.068,10.906A10.933,10.933,0,0,1,10.958-.009Z" transform="translate(-0.083 10.939) rotate(-30)" fill="#005e4b"/>
    <path id="Path_18" data-name="Path 18" d="M10.856.009a10.933,10.933,0,0,1,10.89,10.915l.128,65.363A10.869,10.869,0,1,1,.136,76.244L.009,10.881A10.83,10.83,0,0,1,10.856.009Z" transform="translate(43.432 56.729) rotate(30)" fill="#005e4b"/>
  </g>
</svg>
