<svg id="Component_33_1" data-name="Component 33 – 1" xmlns="http://www.w3.org/2000/svg" width="94" height="94" viewBox="0 0 94 94">
  <rect id="Rectangle_49" data-name="Rectangle 49" width="94" height="94" rx="15" fill="#005e4b"/>
  <path id="Path_36" data-name="Path 36" d="M6.063,0a6.063,6.063,0,0,1,6.063,6.063V49.181A6.063,6.063,0,0,1,0,49.181V6.063A6.063,6.063,0,0,1,6.063,0Z" transform="translate(41.77 19.892)" fill="#fff"/>
  <path id="Path_37" data-name="Path 37" d="M6.063,0a6.063,6.063,0,0,1,6.063,6.063V49.181A6.063,6.063,0,0,1,0,49.181V6.063A6.063,6.063,0,0,1,6.063,0Z" transform="translate(20.211 53.577) rotate(-90)" fill="#fff"/>
</svg>
