<svg id="gps-fixed-indicator" xmlns="http://www.w3.org/2000/svg" width="128" height="128" viewBox="0 0 128 128">
  <g id="gps-fixed" transform="translate(4 4.422)">
    <path id="Path_31" data-name="Path 31" d="M59.789,38.048A21.741,21.741,0,1,0,81.531,59.789,21.805,21.805,0,0,0,59.789,38.048Zm48.375,16.306c-2.718-22.829-20.654-40.765-42.939-42.939V0H54.354V11.414A47.559,47.559,0,0,0,11.414,54.354H0V65.224H11.414c2.718,22.829,20.654,40.765,42.939,42.939v11.414H65.224V108.164c22.829-2.718,40.765-20.654,42.939-42.939h11.414V54.354ZM59.789,97.837A38.048,38.048,0,1,1,97.837,59.789,37.813,37.813,0,0,1,59.789,97.837Z" fill="#005e4b"/>
    <path id="Path_33" data-name="Path 33" d="M5,0H7a5,5,0,0,1,5,5V21a5,5,0,0,1-5,5H5a5,5,0,0,1-5-5V5A5,5,0,0,1,5,0Z" transform="translate(54 -4.422)" fill="#005e4b"/>
    <path id="Path_35" data-name="Path 35" d="M5,0H7a5,5,0,0,1,5,5V21a5,5,0,0,1-5,5H5a5,5,0,0,1-5-5V5A5,5,0,0,1,5,0Z" transform="translate(54 97.578)" fill="#005e4b"/>
    <path id="Path_34" data-name="Path 34" d="M5,0H7a5,5,0,0,1,5,5V21a5,5,0,0,1-5,5H5a5,5,0,0,1-5-5V5A5,5,0,0,1,5,0Z" transform="translate(22 53.578) rotate(90)" fill="#005e4b"/>
    <path id="Path_32" data-name="Path 32" d="M5,0H7a5,5,0,0,1,5,5V21a5,5,0,0,1-5,5H5a5,5,0,0,1-5-5V5A5,5,0,0,1,5,0Z" transform="translate(124 53.578) rotate(90)" fill="#005e4b"/>
  </g>
</svg>
