<svg id="ojo_x" data-name="ojo x" xmlns="http://www.w3.org/2000/svg" width="184.521" height="143.543" viewBox="0 0 184.521 143.543">
  <path id="Subtraction_1" data-name="Subtraction 1" d="M5507.806,1157.347c-13.01,0-26.5-2.993-40.1-8.9l13.183-13.183a37.821,37.821,0,1,0,53.486-53.486l13.047-13.048a141.912,141.912,0,0,1,20.343,10.862,169.566,169.566,0,0,1,15.958,11.594,144.61,144.61,0,0,1,14.961,13.9,5.4,5.4,0,0,1,0,7.21,161.063,161.063,0,0,1-27.452,23.213,140.489,140.489,0,0,1-28.528,15.054A98.164,98.164,0,0,1,5507.806,1157.347Zm-55.959-17.077h0a168.127,168.127,0,0,1-24.828-18.2,130.272,130.272,0,0,1-10.094-9.766,5.4,5.4,0,0,1,0-7.21,160.777,160.777,0,0,1,27.451-23.213,140.485,140.485,0,0,1,28.528-15.054,98.157,98.157,0,0,1,34.9-6.78,92.44,92.44,0,0,1,21.622,2.646l-9.994,9.994a37.848,37.848,0,0,0-47.64,47.64l-19.947,19.947Z" transform="translate(-5415.546 -1039.771)" fill="#005e4b"/>
  <path id="Subtraction_2" data-name="Subtraction 2" d="M5496.531,1135.723a26.944,26.944,0,0,1-19.273-8.1l25.3-25.3a16.152,16.152,0,0,0,15.425,11.742,16.693,16.693,0,0,0,5.119-.819,27.173,27.173,0,0,1-9.1,16.01,26.756,26.756,0,0,1-17.47,6.462Zm-26.911-24.5v0c-.078-.839-.117-1.689-.117-2.525a27.059,27.059,0,0,1,27.028-27.029,25.206,25.206,0,0,1,2.519.127l-29.428,29.427Z" transform="translate(-5404.271 -1039.771)" fill="#005e4b"/>
  <g id="x" transform="translate(0.001 -6)">
    <rect id="Rectangle_75" data-name="Rectangle 75" width="17" height="186" rx="8.5" transform="translate(154.798 6) rotate(45)" fill="#005e4b"/>
  </g>
</svg>
