<svg xmlns="http://www.w3.org/2000/svg" width="79.145" height="83.459" viewBox="0 0 79.145 83.459">
  <g id="agenda" transform="translate(-13.234)">
    <path id="Path_194" data-name="Path 194" d="M417.554,188.117h-9.541v22.131h9.541A5.252,5.252,0,0,0,422.806,205V193.369A5.252,5.252,0,0,0,417.554,188.117Z" transform="translate(-330.428 -157.453)" fill="#3dadff"/>
    <path id="Path_195" data-name="Path 195" d="M417.554,52.351h-9.541V74.482h9.541a5.252,5.252,0,0,0,5.252-5.252V57.6A5.252,5.252,0,0,0,417.554,52.351Z" transform="translate(-330.428 -43.817)" fill="#7cf27c"/>
    <path id="Path_196" data-name="Path 196" d="M417.554,323.883h-9.541v22.131h9.541a5.252,5.252,0,0,0,5.252-5.252V329.135A5.252,5.252,0,0,0,417.554,323.883Z" transform="translate(-330.428 -271.088)" fill="#fb7686"/>
    <g id="Group_65" data-name="Group 65" transform="translate(77.585 8.533)">
      <rect id="Rectangle_22" data-name="Rectangle 22" width="7.337" height="22.071" transform="translate(0)" fill="#145587" opacity="0.15"/>
      <rect id="Rectangle_23" data-name="Rectangle 23" width="7.337" height="22.071" transform="translate(0 22.13)" fill="#145587" opacity="0.2"/>
      <rect id="Rectangle_24" data-name="Rectangle 24" width="7.337" height="22.071" transform="translate(0 44.262)" fill="#145587" opacity="0.3"/>
    </g>
    <path id="Path_197" data-name="Path 197" d="M76.009,0H15.343a2.109,2.109,0,0,0-2.109,2.109V81.351a2.109,2.109,0,0,0,2.109,2.109H76.009a4.1,4.1,0,0,0,4.1-4.1V4.1A4.1,4.1,0,0,0,76.009,0Z" transform="translate(0)" fill="#66d2bc"/>
    <path id="Path_198" data-name="Path 198" d="M153.839,109.91H118.9a3.318,3.318,0,0,0-3.318,3.318v20.334a3.318,3.318,0,0,0,3.318,3.318h34.938a3.318,3.318,0,0,0,3.318-3.318V113.229A3.318,3.318,0,0,0,153.839,109.91Z" transform="translate(-85.665 -91.994)" fill="#fff"/>
    <path id="Path_199" data-name="Path 199" d="M192,209.455h-21.36a1.353,1.353,0,1,1,0-2.706H192a1.353,1.353,0,1,1,0,2.706Z" transform="translate(-130.617 -173.048)" fill="#1f84ce"/>
    <path id="Path_200" data-name="Path 200" d="M153.97,322.442h-35.2a3.187,3.187,0,0,0-3.187,3.187h0a3.187,3.187,0,0,0,3.187,3.187h35.2a3.187,3.187,0,0,0,3.187-3.187h0A3.187,3.187,0,0,0,153.97,322.442Z" transform="translate(-85.665 -269.882)" fill="#acdfea"/>
    <path id="Path_201" data-name="Path 201" d="M15.343,0a2.109,2.109,0,0,0-2.109,2.109V81.351a2.109,2.109,0,0,0,2.109,2.109H21.3V0Z" transform="translate(0)" fill="#384148"/>
    <path id="Path_202" data-name="Path 202" d="M206.18,165.185h-14.5a1.353,1.353,0,0,1,0-2.706h14.5a1.353,1.353,0,0,1,0,2.706Z" transform="translate(-148.225 -135.994)" fill="#1f84ce"/>
  </g>
</svg>
