<svg xmlns="http://www.w3.org/2000/svg" width="139.929" height="138.217" viewBox="0 0 139.929 138.217">
  <g id="bacteria" transform="translate(-2.189 20.143) rotate(-13)">
    <g id="Group_11" data-name="Group 11" transform="translate(0)">
      <path id="Path_7" data-name="Path 7" d="M85.575,56.539q.12,0,.241-.007a3.932,3.932,0,0,0,3.691-3.754c.346-.64,1.9-2.5,6.052-5.222a36.959,36.959,0,0,1,7.985-4.167,3.932,3.932,0,0,0-1.985-7.609c-2.6.678-7.366,3.155-11.338,5.89-6.054,4.169-8.776,7.72-8.568,11.174A3.932,3.932,0,0,0,85.575,56.539ZM89.45,52.9Zm.053-.528a.012.012,0,0,0,0,0A.012.012,0,0,1,89.5,52.37Z" transform="translate(-0.449 -26.586)" fill="#7fdbd5"/>
      <path id="Path_8" data-name="Path 8" d="M418.738,384.066a3.922,3.922,0,0,0,1.452-.279c4.821-1.918,7.033-5.207,8.81-7.849,1.553-2.309,2.531-3.653,4.567-4.42a3.932,3.932,0,1,0-2.771-7.359c-4.487,1.69-6.613,4.85-8.321,7.39-1.47,2.186-2.631,3.913-5.192,4.931a3.932,3.932,0,0,0,1.455,7.586Z" transform="translate(-414.804 -271.362)" fill="#7fdbd5"/>
      <path id="Path_9" data-name="Path 9" d="M419.21,94.184a3.932,3.932,0,0,0,1.36-7.622c-.689-.254-1.4-.481-2.157-.722-3.891-1.242-8.3-2.649-10.829-8.231a3.932,3.932,0,1,0-7.163,3.244c3.97,8.765,11.251,11.089,15.6,12.478.67.214,1.3.416,1.829.61A3.935,3.935,0,0,0,419.21,94.184Z" transform="translate(-398.086 -56.15)" fill="#7fdbd5"/>
      <path id="Path_10" data-name="Path 10" d="M346,19.544a3.934,3.934,0,0,0,3.7-5.253c-.03-.084-.064-.181-.1-.29a28.63,28.63,0,0,0-3.191-6.684A16.9,16.9,0,0,0,337.176.168,3.932,3.932,0,1,0,334.908,7.7c4.676,1.408,6.626,7.032,7.267,8.88.046.133.087.252.124.354A3.933,3.933,0,0,0,346,19.544Z" transform="translate(-307.596 0)" fill="#7fdbd5"/>
      <path id="Path_11" data-name="Path 11" d="M75.736,424.868a3.934,3.934,0,0,0,3.738-5.153c-2.167-6.638-8.432-8.742-13.005-10.278a30.587,30.587,0,0,1-3.579-1.353,3.932,3.932,0,0,0-3.511,7.036,36.266,36.266,0,0,0,4.587,1.771c4.285,1.439,7.158,2.583,8.034,5.264A3.933,3.933,0,0,0,75.736,424.868Z" transform="translate(32.581 -303.997)" fill="#7fdbd5"/>
      <path id="Path_12" data-name="Path 12" d="M287.863,450.1a3.914,3.914,0,0,0,2.064-.588c4.871-3.012,8.95-10,9.486-16.255a3.932,3.932,0,0,0-7.834-.673c-.322,3.748-3.026,8.533-5.787,10.24a3.932,3.932,0,0,0,2.071,7.276Z" transform="translate(-244.835 -319.891)" fill="#7fdbd5"/>
      <path id="Path_13" data-name="Path 13" d="M31.033,254.252a3.932,3.932,0,0,0,3-6.471c-5.515-6.518-12.03-9.21-17.872-7.386A3.932,3.932,0,1,0,18.5,247.9c3.111-.971,6.959,1.925,9.526,4.959A3.923,3.923,0,0,0,31.033,254.252Z" transform="translate(88.427 -178.845)" fill="#7fdbd5"/>
    </g>
    <path id="Path_14" data-name="Path 14" d="M410.277,115.689a3.928,3.928,0,0,1-5.048,2.33c-.526-.194-1.159-.4-1.829-.61-.894-.285-1.913-.612-3-1.024l-.3-6a23.736,23.736,0,0,1,.026-2.792,26,26,0,0,0,5.666,2.329c.755.241,1.469.469,2.157.722A3.932,3.932,0,0,1,410.277,115.689Z" transform="translate(-385.463 -80.229)" opacity="0.15"/>
    <path id="Path_15" data-name="Path 15" d="M284.936,443.242c-.337,0-.673-.008-1.008-.019a3.937,3.937,0,0,1,.538-.4c2.761-1.707,5.465-6.492,5.787-10.24a3.932,3.932,0,0,1,7.834.673,22.361,22.361,0,0,1-2.405,8.032A30.465,30.465,0,0,1,284.936,443.242Z" transform="translate(-243.509 -319.891)" opacity="0.15"/>
    <path id="Path_16" data-name="Path 16" d="M419.9,364.159a3.932,3.932,0,0,1,2.771,7.359c-2.036.766-3.014,2.11-4.567,4.419-.213.316-.432.642-.661.974a30.083,30.083,0,0,1-2.644-9.474A14.209,14.209,0,0,1,419.9,364.159Z" transform="translate(-403.912 -271.363)" opacity="0.15"/>
    <path id="Path_17" data-name="Path 17" d="M346,31.267c.038.11.072.207.1.29a3.932,3.932,0,1,1-7.407,2.64c-.036-.1-.077-.221-.124-.354-.6-1.738-2.365-6.816-6.462-8.585a23.091,23.091,0,0,1,9.592-2.1h.067c.359.453.707.927,1.041,1.427A28.649,28.649,0,0,1,346,31.267Z" transform="translate(-303.991 -17.266)" opacity="0.15"/>
    <path id="Path_18" data-name="Path 18" d="M87.749,416.891a36.266,36.266,0,0,1-4.587-1.771,3.932,3.932,0,0,1,3.511-7.036,30.557,30.557,0,0,0,3.579,1.354,33.771,33.771,0,0,1,7.153,3.068,34.2,34.2,0,0,1-7.207,5.249C89.443,417.469,88.627,417.186,87.749,416.891Z" transform="translate(8.798 -303.997)" opacity="0.15"/>
    <path id="Path_19" data-name="Path 19" d="M137.291,67.749l.844,1.638a5.723,5.723,0,0,0,3.926,2.982l1.674.347c-2.832,2.056-3.983,3.458-4.274,4a3.932,3.932,0,0,1-3.691,3.753q-.121.007-.241.007a3.932,3.932,0,0,1-3.921-3.695C131.436,73.932,133.257,71.019,137.291,67.749Z" transform="translate(-50.404 -50.52)" opacity="0.15"/>
    <path id="Path_20" data-name="Path 20" d="M57.184,242.667h0a3.213,3.213,0,0,0-.914,3.157l1.518,5.825c-2.488-2.533-5.729-4.586-8.42-3.747a3.932,3.932,0,1,1-2.344-7.506,13.712,13.712,0,0,1,10.954,1.488C57.719,242.15,57.456,242.412,57.184,242.667Z" transform="translate(57.563 -178.846)" opacity="0.15"/>
    <path id="Path_21" data-name="Path 21" d="M74.289,138.974a26.809,26.809,0,0,0,10.845-2.3l4.878-2.143a23.444,23.444,0,0,1,9.486-1.992c.549,0,1.1.02,1.652.058l12.134.852c.729.051,1.466.077,2.193.077A30.606,30.606,0,0,0,145.042,95.2l-2.9-11.114a1.318,1.318,0,0,1,.375-1.295L145,80.472a19.283,19.283,0,0,0-9.259-32.964L119.9,44.225a1.311,1.311,0,0,1-.9-.687l-3.62-7.023a19.281,19.281,0,0,0-31.534-4,1.31,1.31,0,0,1-.988.441,1.3,1.3,0,0,1-.613-.154L79.6,31.4a19.227,19.227,0,0,0-23.039,3.769A19.065,19.065,0,0,0,51.307,49.4l.6,11.992a1.314,1.314,0,0,1-1.119,1.368L50,62.878a19.283,19.283,0,0,0-11.931,31.4l9.407,11.3a1.325,1.325,0,0,1,.3.963l-.277,3.032a26.554,26.554,0,0,0,6.875,20.56A27.044,27.044,0,0,0,74.289,138.974Z" transform="translate(-32.862 -19.437)" fill="#287d99"/>
    <path id="Path_22" data-name="Path 22" d="M133.71,66.97l3.62,7.023a10.3,10.3,0,0,0,7.065,5.367l15.84,3.283a10.3,10.3,0,0,1,4.946,17.608l-2.483,2.322a10.3,10.3,0,0,0-2.931,10.12l2.9,11.114a21.621,21.621,0,0,1-22.437,27.021l-12.134-.852a32.566,32.566,0,0,0-15.381,2.671l-4.878,2.143a17.936,17.936,0,0,1-25.075-18.058l.278-3.03a10.3,10.3,0,0,0-2.342-7.531l-9.408-11.3A10.3,10.3,0,0,1,77.662,98.1l.782-.118a10.3,10.3,0,0,0,8.746-10.7l-.6-11.991a10.3,10.3,0,0,1,15.114-9.613l2.644,1.4a10.3,10.3,0,0,0,12.516-2.246h0A10.3,10.3,0,0,1,133.71,66.97Z" transform="translate(-59.175 -45.776)" fill="#7fdbd5"/>
    <ellipse id="Ellipse_1" data-name="Ellipse 1" cx="4.8" cy="4.8" rx="4.8" ry="4.8" transform="translate(39.32 91.676)" fill="#287d99"/>
    <ellipse id="Ellipse_2" data-name="Ellipse 2" cx="4.8" cy="4.8" rx="4.8" ry="4.8" transform="translate(26.867 70.559)" opacity="0.2"/>
    <ellipse id="Ellipse_3" data-name="Ellipse 3" cx="4.094" cy="4.094" rx="4.094" ry="4.094" transform="translate(59.498 27.577)" fill="#287d99"/>
    <ellipse id="Ellipse_4" data-name="Ellipse 4" cx="4.094" cy="4.094" rx="4.094" ry="4.094" transform="translate(86.548 77.665)" opacity="0.2"/>
    <g id="Group_12" data-name="Group 12" transform="translate(36.466 55.864)">
      <ellipse id="Ellipse_5" data-name="Ellipse 5" cx="6.558" cy="5.222" rx="6.558" ry="5.222" transform="translate(35.547)" fill="#fff"/>
      <ellipse id="Ellipse_6" data-name="Ellipse 6" cx="6.558" cy="5.222" rx="6.558" ry="5.222" transform="translate(0)" fill="#fff"/>
    </g>
    <g id="Group_13" data-name="Group 13" transform="translate(42.213 50.197)">
      <path id="Path_23" data-name="Path 23" d="M188.357,204.018a1.907,1.907,0,0,0,1.907-1.907V199.3a1.907,1.907,0,1,0-3.815,0v2.815A1.907,1.907,0,0,0,188.357,204.018Z" transform="translate(-153.096 -197.389)" fill="#495059"/>
      <ellipse id="Ellipse_7" data-name="Ellipse 7" cx="5.287" cy="5.917" rx="5.287" ry="5.917" transform="translate(13.297 0.96)" fill="#495059"/>
      <path id="Path_24" data-name="Path 24" d="M319.514,204.018a1.907,1.907,0,0,0,1.907-1.907V199.3a1.907,1.907,0,1,0-3.815,0v2.815A1.907,1.907,0,0,0,319.514,204.018Z" transform="translate(-317.607 -197.389)" fill="#495059"/>
    </g>
    <path id="Path_25" data-name="Path 25" d="M70.13,155.7a23.444,23.444,0,0,0-9.486,1.992l-4.878,2.143a26.676,26.676,0,0,1-22.19-.238c31.257-4.18,48.257-10.8,45.471-27.625-.686-4.143-7.185-16.27,5.289-28.546,9.86-9.7,6.866-30.988.1-46.3a19.478,19.478,0,0,1,1.577,2.551l3.62,7.023a1.312,1.312,0,0,0,.9.687l15.84,3.283a19.283,19.283,0,0,1,9.259,32.964l-2.482,2.322a1.317,1.317,0,0,0-.375,1.295l2.9,11.114A30.606,30.606,0,0,1,86.11,156.688c-.726,0-1.464-.026-2.193-.077l-12.134-.852C71.235,155.72,70.679,155.7,70.13,155.7Z" transform="translate(-3.493 -42.599)" opacity="0.15"/>
    <g id="Group_14" data-name="Group 14" transform="translate(19.403 26.684)" opacity="0.1">
      <path id="Path_26" data-name="Path 26" d="M265.531,305.547a1.907,1.907,0,0,0,1.645-2.87c-.2-.343-.391-.7-.574-1.039-1.186-2.207-2.657-4.957-7.61-4.705a1.907,1.907,0,0,0,.191,3.81c2.539-.126,2.953.643,4.059,2.7.2.372.406.756.641,1.159A1.908,1.908,0,0,0,265.531,305.547Z" transform="translate(-225.444 -248.093)"/>
      <path id="Path_27" data-name="Path 27" d="M319.516,114.794a1.9,1.9,0,0,0,.731-.146c2.717-1.129,5.763-5.4,5.967-7.637a1.907,1.907,0,0,0-3.8-.358c-.15.9-2.212,3.882-3.633,4.473a1.907,1.907,0,0,0,.733,3.669Z" transform="translate(-299.597 -104.93)"/>
      <path id="Path_28" data-name="Path 28" d="M114.114,175.347c.359,0,.736-.016,1.131-.049a1.907,1.907,0,1,0-.319-3.8,8.13,8.13,0,0,1-4.84-1.069,10.406,10.406,0,0,0-5.2-1.338,1.907,1.907,0,0,0,.05,3.814h.052a6.92,6.92,0,0,1,3.442.961A12.016,12.016,0,0,0,114.114,175.347Z" transform="translate(-35.799 -152.771)"/>
      <path id="Path_29" data-name="Path 29" d="M158.724,353.537a6.584,6.584,0,0,0,2.437-.5,1.907,1.907,0,0,0-1.4-3.548c-1.349.533-2.019.095-3.54-1.036a8.467,8.467,0,0,0-5.292-2.153,1.907,1.907,0,0,0,.019,3.815H151c1.013,0,1.782.534,2.947,1.4A7.938,7.938,0,0,0,158.724,353.537Z" transform="translate(-92.876 -284.921)"/>
      <path id="Path_30" data-name="Path 30" d="M386.389,233.307a1.9,1.9,0,0,0,.693-.131c1.635-.638,5.561-2.31,6.706-4.057a1.907,1.907,0,0,0-3.183-2.1,18.071,18.071,0,0,1-4.91,2.606,1.908,1.908,0,0,0,.694,3.685Z" transform="translate(-384.481 -195.335)"/>
    </g>
  </g>
</svg>
