<svg id="brain-flat" xmlns="http://www.w3.org/2000/svg" width="45.009" height="53.027" viewBox="0 0 45.009 53.027">
  <g id="Group_31" data-name="Group 31" transform="translate(26.301 8.583)">
    <g id="Group_30" data-name="Group 30">
      <path id="Path_123" data-name="Path 123" d="M297.074,83a1.074,1.074,0,1,0,1.074,1.074A1.074,1.074,0,0,0,297.074,83Z" transform="translate(-296 -83)" fill="#fff"/>
    </g>
  </g>
  <g id="Group_33" data-name="Group 33" transform="translate(16.56 8.583)">
    <g id="Group_32" data-name="Group 32">
      <path id="Path_124" data-name="Path 124" d="M197.074,83a1.074,1.074,0,1,0,1.074,1.074A1.074,1.074,0,0,0,197.074,83Z" transform="translate(-196 -83)" fill="#fff"/>
    </g>
  </g>
  <g id="Group_35" data-name="Group 35" transform="translate(0)">
    <g id="Group_34" data-name="Group 34">
      <path id="Path_125" data-name="Path 125" d="M69.749,30.955a8.636,8.636,0,0,0,1.26-4.441,7.366,7.366,0,0,0-2.479-5.565,7.357,7.357,0,0,0,.522-2.721A7.782,7.782,0,0,0,65.1,11.4a6.193,6.193,0,0,0-4.454-6.774A7.072,7.072,0,0,0,54.375,0,6.832,6.832,0,0,0,48.5,3.73,6.832,6.832,0,0,0,42.634,0a7.072,7.072,0,0,0-6.267,4.627A6.193,6.193,0,0,0,31.912,11.4a7.782,7.782,0,0,0-3.955,6.827,7.356,7.356,0,0,0,.522,2.721A7.366,7.366,0,0,0,26,26.514a8.635,8.635,0,0,0,1.26,4.441,7.466,7.466,0,0,0,.785,9.284c-.672,4.3,2.566,8.646,6.761,8.646H34.9a7.52,7.52,0,0,0,13.609-.36,7.52,7.52,0,0,0,13.609.36H62.2c3.713,0,6.849-3.462,6.849-7.56a7.009,7.009,0,0,0-.088-1.086,7.465,7.465,0,0,0,.785-9.283ZM47.526,15.678a3.725,3.725,0,0,0-1.957-.557,1.037,1.037,0,0,0,0,2.071,2.019,2.019,0,0,1,1.957,2.071v19.7a7.633,7.633,0,0,0-5.871-2.814,1.037,1.037,0,0,0,0,2.071,6.057,6.057,0,0,1,5.871,6.214c0,3.537-2.688,6.525-5.871,6.525a5.877,5.877,0,0,1-5.313-3.612.97.97,0,0,0-1-.593c-.069.008-.138.018-.207.028-2.785.4-5.921-2.935-5.072-6.668a1.071,1.071,0,0,0-.325-1.038,5.3,5.3,0,0,1-1.066-6.627,6.389,6.389,0,0,0,4.174,1.629,1.037,1.037,0,0,0,0-2.071c-2.655,0-4.892-2.565-4.892-5.489a5.225,5.225,0,0,1,2.285-4.365,1.071,1.071,0,0,0,.327-1.386,5.326,5.326,0,0,1-.655-2.535c0-2.8,2.153-5.489,4.892-5.489,2.606,0,4.892,2.565,4.892,5.489a.98.98,0,1,0,1.957,0c0-4.1-3.137-7.56-6.849-7.56a6,6,0,0,0-.976.081c0-.027,0-.054,0-.081a4.032,4.032,0,0,1,3.914-4.143A3.786,3.786,0,0,1,40.51,7.738a.941.941,0,0,0,1.384,0,1.079,1.079,0,0,0,0-1.465,5.723,5.723,0,0,0-3.245-1.745,4.9,4.9,0,0,1,3.986-2.456c2.606,0,4.892,2.565,4.892,5.489Zm16.634,18.4a6.391,6.391,0,0,0,4.174-1.629,5.3,5.3,0,0,1-1.066,6.627,1.071,1.071,0,0,0-.325,1.038,5.392,5.392,0,0,1,.152,1.214c0,3.215-2.747,5.813-5.224,5.455-.069-.01-.138-.02-.207-.028a.969.969,0,0,0-1,.593,5.877,5.877,0,0,1-5.313,3.612c-3.182,0-5.871-2.988-5.871-6.525a6.057,6.057,0,0,1,5.871-6.214,1.037,1.037,0,0,0,0-2.071,7.633,7.633,0,0,0-5.871,2.814v-19.7a2.019,2.019,0,0,1,1.957-2.071,1.037,1.037,0,0,0,0-2.071,3.725,3.725,0,0,0-1.957.557V7.56c0-2.924,2.286-5.489,4.892-5.489a4.9,4.9,0,0,1,3.986,2.456,5.723,5.723,0,0,0-3.245,1.745,1.079,1.079,0,0,0,0,1.465.941.941,0,0,0,1.384,0,3.787,3.787,0,0,1,2.768-1.213,4.031,4.031,0,0,1,3.914,4.143c0,.027,0,.054,0,.081a6,6,0,0,0-.976-.081c-3.713,0-6.849,3.462-6.849,7.56a.98.98,0,1,0,1.957,0c0-2.924,2.286-5.489,4.892-5.489,2.738,0,4.892,2.692,4.892,5.489a5.326,5.326,0,0,1-.655,2.535,1.071,1.071,0,0,0,.328,1.386,5.226,5.226,0,0,1,2.285,4.365c0,2.934-2.245,5.489-4.892,5.489a1.037,1.037,0,0,0,0,2.071Z" transform="translate(-26)" fill="#fff"/>
    </g>
  </g>
  <g id="Group_37" data-name="Group 37" transform="translate(7.558 16.998)">
    <g id="Group_36" data-name="Group 36">
      <path id="Path_126" data-name="Path 126" d="M118.614,171.161a1.074,1.074,0,0,0-1.516-.084,5.379,5.379,0,0,1-8.95-4,1.074,1.074,0,1,0-2.148,0,7.529,7.529,0,0,0,6.293,7.416,3.228,3.228,0,0,1-3.072,2.249,1.074,1.074,0,1,0,0,2.148,5.378,5.378,0,0,0,5.273-4.36,7.505,7.505,0,0,0,4.034-1.85A1.074,1.074,0,0,0,118.614,171.161Z" transform="translate(-106 -166)" fill="#fff"/>
    </g>
  </g>
  <g id="Group_39" data-name="Group 39" transform="translate(7.667 39.817)">
    <g id="Group_38" data-name="Group 38">
      <path id="Path_127" data-name="Path 127" d="M107.074,389a1.074,1.074,0,1,0,0,2.148,5.683,5.683,0,0,1,5.37,5.692,1.074,1.074,0,0,0,2.148,0A7.787,7.787,0,0,0,107.074,389Z" transform="translate(-106 -389)" fill="#fff"/>
    </g>
  </g>
  <g id="Group_41" data-name="Group 41" transform="translate(8.636 31.844)">
    <g id="Group_40" data-name="Group 40">
      <path id="Path_128" data-name="Path 128" d="M124.947,309a9.646,9.646,0,0,0-8.409,4.9,1.074,1.074,0,1,0,1.869,1.059,7.5,7.5,0,0,1,6.541-3.809,1.074,1.074,0,1,0,0-2.148Z" transform="translate(-116.398 -309)" fill="#fff"/>
    </g>
  </g>
  <g id="Group_43" data-name="Group 43" transform="translate(24.563 16.998)">
    <g id="Group_42" data-name="Group 42">
      <path id="Path_129" data-name="Path 129" d="M295.665,176.74a3.228,3.228,0,0,1-3.072-2.249,7.529,7.529,0,0,0,6.293-7.416,1.074,1.074,0,1,0-2.148,0,5.37,5.37,0,0,1-8.95,4,1.074,1.074,0,1,0-1.432,1.6,7.506,7.506,0,0,0,4.034,1.85,5.378,5.378,0,0,0,5.273,4.36,1.074,1.074,0,0,0,0-2.148Z" transform="translate(-286 -166)" fill="#fff"/>
    </g>
  </g>
  <g id="Group_45" data-name="Group 45" transform="translate(28.75 39.817)">
    <g id="Group_44" data-name="Group 44">
      <path id="Path_130" data-name="Path 130" d="M333.518,389A7.787,7.787,0,0,0,326,396.84a1.074,1.074,0,0,0,2.148,0,5.683,5.683,0,0,1,5.37-5.692,1.074,1.074,0,1,0,0-2.148Z" transform="translate(-326 -389)" fill="#fff"/>
    </g>
  </g>
  <g id="Group_47" data-name="Group 47" transform="translate(26.75 31.844)">
    <g id="Group_46" data-name="Group 46">
      <path id="Path_131" data-name="Path 131" d="M315.483,313.9a9.645,9.645,0,0,0-8.409-4.9,1.074,1.074,0,0,0,0,2.148,7.5,7.5,0,0,1,6.54,3.809,1.074,1.074,0,0,0,1.869-1.059Z" transform="translate(-306 -309)" fill="#fff"/>
    </g>
  </g>
</svg>
