<svg xmlns="http://www.w3.org/2000/svg" width="143.758" height="178.29" viewBox="0 0 143.758 178.29">
  <g id="etetocopio" transform="matrix(0.966, 0.259, -0.259, 0.966, 3.9, -7.86)">
    <path id="Path_93" data-name="Path 93" d="M63.265,117.463a5.3,5.3,0,0,1-4.489-2.486L24.855,60.8A18.491,18.491,0,0,1,26.1,39.434l7.027-8.76A5.3,5.3,0,1,1,41.393,37.3l-7.027,8.76a7.888,7.888,0,0,0-.532,9.114l29.431,47.009L92.7,55.176a7.889,7.889,0,0,0-.532-9.114L85.136,37.3A5.3,5.3,0,0,1,93.4,30.674l7.027,8.76A18.492,18.492,0,0,1,101.674,60.8L67.754,114.977A5.3,5.3,0,0,1,63.265,117.463Z" transform="translate(0 -20.129)" fill="#bdc0c3"/>
    <path id="Path_94" data-name="Path 94" d="M42.818,36.768a3.779,3.779,0,0,0,.393.378l6.451,5.271a3.732,3.732,0,0,0,1.593.762L55.969,37.3a5.3,5.3,0,1,0-8.263-6.628Z" transform="translate(-14.576 -20.13)" opacity="0.1"/>
    <path id="Path_95" data-name="Path 95" d="M243.894,36.768a3.778,3.778,0,0,1-.393.378l-6.451,5.271a3.731,3.731,0,0,1-1.593.762L230.743,37.3a5.3,5.3,0,0,1,8.263-6.628Z" transform="translate(-145.607 -20.13)" opacity="0.1"/>
    <g id="Group_25" data-name="Group 25" transform="translate(30.366 0)">
      <path id="Path_96" data-name="Path 96" d="M50.784,8.619l4.6-5.624A8.065,8.065,0,0,1,66.756,1.832a7.921,7.921,0,0,1,1,11.048l-4.708,5.762a3.757,3.757,0,0,1-5.286.532L51.317,13.9A3.757,3.757,0,0,1,50.784,8.619Z" transform="translate(-49.937 0)" fill="#495059"/>
      <path id="Path_97" data-name="Path 97" d="M223.477,8.619l-4.6-5.624a8.065,8.065,0,0,0-11.377-1.163,7.921,7.921,0,0,0-1,11.048l4.708,5.762a3.757,3.757,0,0,0,5.286.532l6.451-5.271A3.757,3.757,0,0,0,223.477,8.619Z" transform="translate(-158.528 0)" fill="#495059"/>
    </g>
    <path id="Path_98" data-name="Path 98" d="M188.22,356.726H179.1a36.7,36.7,0,0,1-36.663-36.663v-24.08a5.3,5.3,0,1,1,10.593,0v24.08a26.1,26.1,0,0,0,26.07,26.07h9.121a34.736,34.736,0,0,0,34.7-34.7V295.983a5.3,5.3,0,1,1,10.593,0v15.453A45.341,45.341,0,0,1,188.22,356.726Z" transform="translate(-84.468 -203.945)" fill="#7fdbd5"/>
    <path id="Path_99" data-name="Path 99" d="M417.44,290.686a5.3,5.3,0,0,0-5.3,5.3v13.057a18.011,18.011,0,0,0,10.593,0V295.983A5.3,5.3,0,0,0,417.44,290.686Z" transform="translate(-273.694 -203.945)" opacity="0.1"/>
    <path id="Path_100" data-name="Path 100" d="M153.029,310.7V295.983a5.3,5.3,0,1,0-10.593,0V310.7A7.768,7.768,0,0,0,153.029,310.7Z" transform="translate(-84.468 -203.945)" opacity="0.1"/>
    <circle id="Ellipse_21" data-name="Ellipse 21" cx="17.922" cy="17.922" r="17.922" transform="translate(125.824 62.986)" fill="#495059"/>
    <circle id="Ellipse_22" data-name="Ellipse 22" cx="9.632" cy="9.632" r="9.632" transform="translate(134.114 71.276)" fill="#b3e7ff"/>
    <path id="Path_101" data-name="Path 101" d="M401.681,241.6c-18.228,1.552-23.387-21.519-18.37-28.644a17.922,17.922,0,1,0,18.37,28.644Z" transform="translate(-244.013 -149.408)" opacity="0.1"/>
    <path id="Path_102" data-name="Path 102" d="M129.667,239.86l-13.6,21.719a9.158,9.158,0,0,1-15.524,0l-13.6-21.719a4.579,4.579,0,0,1,3.881-7.009h34.957A4.579,4.579,0,0,1,129.667,239.86Z" transform="translate(-45.043 -163.368)" fill="#b3e7ff"/>
    <path id="Path_103" data-name="Path 103" d="M108.547,288.19l7.647,12.215a9.158,9.158,0,0,0,15.524,0l7.647-12.215Z" transform="translate(-60.691 -202.194)" fill="#76b7eb"/>
    <path id="Path_104" data-name="Path 104" d="M100.546,261.579a9.157,9.157,0,0,0,15.524,0l2.923-4.669c-12,7.311-20.365-15.94-22.414-24.059H90.829a4.579,4.579,0,0,0-3.881,7.009Z" transform="translate(-45.042 -163.368)" opacity="0.1"/>
  </g>
</svg>
