<?xml version="1.0" encoding="iso-8859-1"?>
<!-- Generator: Adobe Illustrator 19.0.0, SVG Export Plug-In . SVG Version: 6.00 Build 0)  -->
<svg version="1.1" id="Capa_1" xmlns="http://www.w3.org/2000/svg" xmlns:xlink="http://www.w3.org/1999/xlink" x="0px" y="0px"
	 viewBox="0 0 512 512" style="enable-background:new 0 0 512 512;" xml:space="preserve">
<path style="fill:#38648C;" d="M174.015,186.501c-17.332,0-31.382-14.05-31.382-31.382V31.382C142.633,14.05,156.683,0,174.015,0
	s31.382,14.05,31.382,31.382v123.736C205.398,172.451,191.347,186.501,174.015,186.501z"/>
<path style="opacity:0.1;enable-background:new    ;" d="M205.398,155.119v-37.451c-41.645,4.311-45.475-82.175-40.358-116.358
	c-12.957,3.862-22.407,15.861-22.407,30.073v123.736c0,17.332,14.05,31.382,31.382,31.382S205.398,172.451,205.398,155.119z"/>
<path style="fill:#F28B74;" d="M199.206,189.687c-17.332,0-31.382-14.05-31.382-31.382c0-31.409,20.57-57.913,52.405-67.522
	c18.541-5.596,39.177-4.645,58.108,2.678c20.256,7.836,38.039,22.631,51.426,42.787c9.589,14.438,5.659,33.915-8.779,43.505
	c-14.436,9.589-33.915,5.658-43.504-8.779c-13.03-19.619-29.216-23.09-39.114-20.102c-2.338,0.706-7.776,2.843-7.776,7.435
	C230.589,175.637,216.538,189.687,199.206,189.687z"/>
<path style="opacity:0.2;enable-background:new    ;" d="M199.206,189.687c-17.332,0-31.382-14.05-31.382-31.382
	c0-31.409,20.57-57.913,52.405-67.522c18.541-5.596,39.177-4.645,58.108,2.678c20.256,7.836,38.039,22.631,51.426,42.787
	c9.589,14.438,5.659,33.915-8.779,43.505c-14.436,9.589-33.915,5.658-43.504-8.779c-13.03-19.619-29.216-23.09-39.114-20.102
	c-2.338,0.706-7.776,2.843-7.776,7.435C230.589,175.637,216.538,189.687,199.206,189.687z"/>
<path style="fill:#38648C;" d="M404.738,59.5c-2.33-17.175-18.139-29.211-35.315-26.881c-9.509,1.289-19.276,4.16-28.81,8.364
	c-1.79,0.79-3.838-0.335-4.126-2.271c-2.229-15.005-15.073-26.546-30.655-26.728c-17.466-0.205-31.757,14.607-31.757,32.075V182.02
	c0,17.594,14.398,32.417,31.989,32.083c17.052-0.323,30.776-14.247,30.776-31.377v-52.764c0-5.164,1.869-10.152,5.284-14.025
	c7.522-8.532,21.618-19.208,35.733-21.123C395.031,92.486,407.066,76.675,404.738,59.5z"/>
<path style="opacity:0.1;enable-background:new    ;" d="M306.063,214.104c17.052-0.323,30.776-14.247,30.776-31.377v-41.125
	c-45.526,3.36-42.398-102.239-35.814-129.291c-15.207,2.262-26.951,15.914-26.951,31.748V182.02
	C274.074,199.614,288.472,214.437,306.063,214.104z"/>
<g>
	<path style="fill:#38648C;" d="M336.698,125.199L336.698,125.199L336.698,125.199z"/>
	<path style="fill:#38648C;" d="M336.839,123.656c0,0.006,0,0.01,0,0.015C336.839,123.666,336.839,123.661,336.839,123.656z"/>
</g>
<path style="fill:#F28B74;" d="M321.381,149.627c-13.298-0.274-26.079,1.771-37.973,5.755c-8.888,2.977-18.58,1.598-26.26-3.775
	c-18.236-12.758-40.442-20.23-64.398-20.185c-63.043,0.119-112.955,53.253-111.861,116.287
	c1.903,109.632,78.549,176.59,136.051,234.091c18.659,18.659,44.435,30.2,72.908,30.2c28.472,0,54.249-11.541,72.908-30.199
	c38.116-38.116,68.117-125.262,68.373-218.879C431.296,201.735,382.555,150.889,321.381,149.627z"/>
<g>
	<ellipse style="fill:#FFFFFF;" cx="180.25" cy="327.4" rx="31.359" ry="24.973"/>
	<ellipse style="fill:#FFFFFF;" cx="350.22" cy="327.4" rx="31.359" ry="24.973"/>
</g>
<g>
	<path style="fill:#495059;" d="M185.487,305.417c-4.142,0-7.5-3.358-7.5-7.5v-13.46c0-4.142,3.358-7.5,7.5-7.5s7.5,3.358,7.5,7.5
		v13.46C192.987,302.059,189.629,305.417,185.487,305.417z"/>
	<path style="fill:#495059;" d="M265.233,330.936L265.233,330.936c-12.548,0-22.72-10.172-22.72-22.72v-16.518
		c0-3.425,2.777-6.202,6.202-6.202h33.035c3.425,0,6.202,2.777,6.202,6.202v16.518C287.953,320.764,277.781,330.936,265.233,330.936
		z"/>
	<path style="fill:#495059;" d="M344.979,305.417c-4.142,0-7.5-3.358-7.5-7.5v-13.46c0-4.142,3.358-7.5,7.5-7.5s7.5,3.358,7.5,7.5
		v13.46C352.479,302.059,349.121,305.417,344.979,305.417z"/>
</g>
<path style="fill:#38648C;" d="M167.833,187.822c-0.228,0-0.458-0.01-0.691-0.032c-4.125-0.376-7.164-4.026-6.787-8.151
	c2.786-30.505,26.591-49.794,40.941-54.787c3.911-1.359,8.187,0.706,9.548,4.619c1.361,3.912-0.706,8.187-4.619,9.548
	c-11.288,3.927-28.925,19.987-30.934,41.985C174.937,184.897,171.667,187.822,167.833,187.822z"/>
<g>
	<path style="fill:#F5D7B7;" d="M362.822,202.046c-0.013,0-0.025,0-0.037,0c-4.142-0.02-7.484-3.394-7.464-7.536
		c0.085-17.458-20.368-33.209-29.71-37.714c-3.731-1.799-5.297-6.282-3.499-10.013c1.799-3.731,6.282-5.299,10.013-3.499
		c5.607,2.704,14.966,8.856,22.89,17.296c10.069,10.726,15.362,22.484,15.306,34.002
		C370.301,198.712,366.946,202.046,362.822,202.046z"/>
	<path style="fill:#F5D7B7;" d="M339.548,198.77c-0.908,0-1.83-0.165-2.727-0.516c-3.858-1.507-5.765-5.856-4.257-9.714
		c4.635-11.868,13.041-19.725,18.831-22.848c3.645-1.966,8.195-0.605,10.162,3.042c1.966,3.646,0.604,8.195-3.042,10.162
		c-3.097,1.669-8.843,7.069-11.98,15.102C345.379,196.958,342.547,198.77,339.548,198.77z"/>
</g>
<path style="fill:#38648C;" d="M197.727,208.542c-3.853,0-7.129-2.951-7.464-6.86c-1.559-18.178-13.11-29.457-20.493-32.602
	c-3.811-1.624-5.584-6.029-3.96-9.839c1.624-3.811,6.03-5.583,9.839-3.96c6.905,2.941,13.592,8.555,18.831,15.806
	c6.098,8.441,9.808,18.578,10.729,29.314c0.354,4.127-2.705,7.759-6.832,8.113C198.158,208.533,197.941,208.542,197.727,208.542z"/>
<path style="opacity:0.1;enable-background:new    ;" d="M216.94,481.801C235.599,500.459,261.375,512,289.848,512
	c28.472,0,54.249-11.541,72.908-30.199c5.27-5.27,10.383-11.481,15.286-18.512C196.215,476.25,122.516,236.171,148.157,140.945
	c-40.384,18.037-68.086,59.631-67.268,106.764C82.792,357.341,159.438,424.299,216.94,481.801z"/>
<g>
</g>
<g>
</g>
<g>
</g>
<g>
</g>
<g>
</g>
<g>
</g>
<g>
</g>
<g>
</g>
<g>
</g>
<g>
</g>
<g>
</g>
<g>
</g>
<g>
</g>
<g>
</g>
<g>
</g>
</svg>
