<svg id="pelvis-flat" xmlns="http://www.w3.org/2000/svg" width="53.441" height="53.402" viewBox="0 0 53.441 53.402">
  <g id="Group_49" data-name="Group 49" transform="translate(0)">
    <g id="Group_48" data-name="Group 48">
      <path id="Path_132" data-name="Path 132" d="M299.725,364.462h-1.2c-4.177,0-8.392,1.483-8.392,4.8,0,1.992,1.859,4.8,5.994,4.8,2.8,0,3.446-4.374,3.569-7.193h.027a1.2,1.2,0,1,0,0-2.4Zm-3.611,7.193c-2.974-.006-3.583-1.892-3.583-2.4,0-1.152,2.043-2.118,4.757-2.346C297.14,369.369,296.586,371.4,296.114,371.655Z" transform="translate(-261.7 -328.319)" fill="#fff"/>
      <circle id="Ellipse_27" data-name="Ellipse 27" cx="1.199" cy="1.199" r="1.199" transform="translate(20.241 20.803)" fill="#fff"/>
      <circle id="Ellipse_28" data-name="Ellipse 28" cx="1.199" cy="1.199" r="1.199" transform="translate(22.001 23.468)" fill="#fff"/>
      <circle id="Ellipse_29" data-name="Ellipse 29" cx="1.199" cy="1.199" r="1.199" transform="translate(22.881 27.021)" fill="#fff"/>
      <circle id="Ellipse_30" data-name="Ellipse 30" cx="1.199" cy="1.199" r="1.199" transform="translate(23.761 30.574)" fill="#fff"/>
      <circle id="Ellipse_31" data-name="Ellipse 31" cx="1.199" cy="1.199" r="1.199" transform="translate(30.802 20.803)" fill="#fff"/>
      <circle id="Ellipse_32" data-name="Ellipse 32" cx="1.199" cy="1.199" r="1.199" transform="translate(29.042 23.468)" fill="#fff"/>
      <circle id="Ellipse_33" data-name="Ellipse 33" cx="1.199" cy="1.199" r="1.199" transform="translate(28.162 27.021)" fill="#fff"/>
      <circle id="Ellipse_34" data-name="Ellipse 34" cx="1.199" cy="1.199" r="1.199" transform="translate(27.282 30.574)" fill="#fff"/>
      <path id="Path_133" data-name="Path 133" d="M52.777,37.691a1.438,1.438,0,0,0-1.387-.1,3.6,3.6,0,0,1-1.512.309,1.67,1.67,0,0,1-1.3-.494A1.7,1.7,0,0,1,48.1,36.1c0-.017-.007-.033-.009-.05a.9.9,0,0,0-.033-.2.865.865,0,0,0-.029-.083c-.009-.022-.013-.046-.023-.067a3.828,3.828,0,0,0-2.033-1.809c.573-.836,1.207-1.7,1.933-2.619,2.919-3.683,5.539-7.528,5.539-14.042,0-4.989-3.071-8.088-8.016-8.088a11.05,11.05,0,0,0-11.1,8.174,9.035,9.035,0,0,0-2.261.573v-.732a4.468,4.468,0,0,0,2.411-1.088.895.895,0,0,0-1.249-1.281,2.634,2.634,0,0,1-1.162.548V9.966a4.468,4.468,0,0,0,2.411-1.088A.895.895,0,0,0,33.226,7.6a2.634,2.634,0,0,1-1.162.548V4.685a2.208,2.208,0,0,0-2.742-2.148,11.045,11.045,0,0,1-5.2,0,2.208,2.208,0,0,0-2.743,2.148V8.144a2.648,2.648,0,0,1-1.152-.537.885.885,0,0,0-1.254.006.9.9,0,0,0-.006,1.265,4.468,4.468,0,0,0,2.411,1.088v5.368a2.648,2.648,0,0,1-1.152-.537.885.885,0,0,0-1.254,0,.9.9,0,0,0,0,1.266,4.468,4.468,0,0,0,2.411,1.088v.732a9.036,9.036,0,0,0-2.261-.573A11.05,11.05,0,0,0,8.016,9.14C3.071,9.14,0,12.239,0,17.229c0,6.515,2.62,10.36,5.539,14.042.726.916,1.359,1.783,1.933,2.619A3.827,3.827,0,0,0,5.438,35.7c-.011.022-.015.047-.024.07a.879.879,0,0,0-.029.084.905.905,0,0,0-.033.2c0,.017-.008.031-.008.048a1.7,1.7,0,0,1-.488,1.305,1.669,1.669,0,0,1-1.294.492,3.591,3.591,0,0,1-1.511-.309,1.438,1.438,0,0,0-1.387.1A1.466,1.466,0,0,0,0,38.923V53.177a2.687,2.687,0,0,0,2.672,2.7H6.235a2.687,2.687,0,0,0,2.672-2.7v-2.7a15.452,15.452,0,0,1,1.847-6.767c.239,3.444,1.4,8.565,7.06,8.565a10.146,10.146,0,0,0,8.907-5.662,10.146,10.146,0,0,0,8.907,5.662c5.663,0,6.822-5.121,7.06-8.565a15.453,15.453,0,0,1,1.847,6.767v2.7a2.687,2.687,0,0,0,2.672,2.7h3.563a2.687,2.687,0,0,0,2.672-2.7V38.923A1.465,1.465,0,0,0,52.777,37.691ZM23.158,4.685a.4.4,0,0,1,.154-.322h0a.44.44,0,0,1,.386-.08,12.8,12.8,0,0,0,6.046,0,.445.445,0,0,1,.385.08.4.4,0,0,1,.154.322V5.841l-.1.036-.1.034c-.126.043-.265.087-.423.132l-.043.011c-.145.041-.306.08-.475.119l-.139.031c-.2.042-.4.081-.623.115l-.029,0c-.209.031-.433.056-.663.076l-.187.015c-.251.018-.511.031-.784.031s-.527-.013-.777-.031L25.756,6.4c-.224-.02-.441-.044-.645-.074l-.047-.006c-.22-.034-.424-.073-.618-.115L24.3,6.171c-.168-.038-.327-.078-.472-.118l-.047-.012c-.162-.046-.305-.091-.434-.134l-.075-.026-.118-.043V4.685Zm0,3.046.054.014c.1.029.214.056.323.085h0c.124.033.241.065.377.1s.285.056.43.084.256.053.4.075c.183.029.384.049.581.071.121.013.232.032.358.042.332.027.679.043,1.043.043s.712-.016,1.043-.043c.126-.01.238-.029.359-.042.2-.022.4-.042.58-.07.141-.022.265-.05.4-.075s.295-.053.429-.084.254-.064.378-.1c.109-.029.223-.056.322-.085l.054-.014v2.6l-.1.036-.1.034c-.126.043-.265.087-.423.132l-.043.011c-.145.041-.306.08-.475.119l-.139.031c-.2.042-.4.081-.623.115l-.029,0c-.209.031-.433.056-.663.076l-.187.015c-.251.018-.511.031-.784.031s-.527-.013-.777-.031l-.188-.015c-.224-.02-.441-.044-.645-.074l-.047-.006c-.22-.034-.424-.073-.618-.115l-.143-.032c-.168-.038-.327-.078-.472-.118l-.047-.012c-.162-.046-.305-.091-.434-.134l-.075-.026-.118-.043v-2.6Zm0,4.494.054.014c.1.029.214.056.323.085.124.033.241.065.377.1s.285.056.43.084.256.053.4.075c.183.029.384.049.581.071.121.013.232.032.358.042.332.027.679.043,1.043.043s.712-.016,1.043-.043c.126-.01.238-.029.359-.042.2-.022.4-.042.58-.07.141-.022.265-.05.4-.075s.295-.053.429-.084.254-.064.378-.1c.109-.029.223-.056.322-.085l.054-.014v1.7l-.1.036-.1.034c-.126.043-.265.087-.423.132l-.043.011c-.145.041-.306.08-.475.119l-.139.031c-.2.042-.4.081-.623.115l-.029,0c-.209.031-.433.056-.663.076L27.5,14.5c-.251.018-.511.031-.784.031s-.527-.013-.777-.031l-.188-.015c-.224-.02-.441-.044-.645-.074l-.047-.006c-.22-.034-.424-.073-.618-.115L24.3,14.26c-.168-.038-.327-.078-.472-.118l-.047-.012c-.162-.046-.305-.091-.434-.134l-.075-.026-.118-.043v-1.7Zm7.126,3.595v2.938l-.076.041a6.642,6.642,0,0,1-3.487,1.125A6.642,6.642,0,0,1,23.233,18.8l-.076-.041V15.82l.054.014c.1.029.214.056.323.085.124.033.241.065.377.1s.285.056.43.084.256.053.4.075c.183.029.384.049.581.071.121.013.232.032.358.042.332.027.679.043,1.043.043s.712-.016,1.043-.043c.126-.01.238-.029.359-.042.2-.022.4-.042.58-.07.141-.022.265-.05.4-.075s.295-.053.429-.084.254-.064.378-.1c.109-.029.223-.056.322-.085ZM7.125,50.481v2.7a.9.9,0,0,1-.891.9H2.672a.9.9,0,0,1-.891-.9V39.412a5.5,5.5,0,0,0,1.781.284,3.322,3.322,0,0,0,2.966-1.546l.091.122.126.168c.067.089.135.178.207.269l.159.2c.069.087.14.173.212.261.059.072.12.143.181.216s.146.17.222.256.133.148.2.222.154.166.233.249.143.147.215.22.161.16.244.239.151.141.228.211.169.152.255.225.156.13.236.194.177.141.267.208.16.116.241.172c.055.038.109.081.165.118C7.67,44.356,7.125,49.248,7.125,50.481Zm3.294-10.7q-.211-.173-.419-.366c-.039-.036-.077-.074-.115-.111-.1-.1-.2-.2-.3-.3-.053-.054-.1-.109-.157-.163q-.133-.141-.263-.286l-.141-.158q-.168-.192-.328-.385l-.061-.073q-.177-.217-.343-.431l-.109-.143c-.08-.106-.159-.211-.234-.314l-.095-.13c-.085-.118-.167-.234-.244-.345l-.043-.061c-.093-.135-.18-.264-.258-.385l-.007-.01a2.689,2.689,0,0,1,1.168-.686,22.408,22.408,0,0,1,1.207,2.25c.022.048.045.1.066.145.134.3.251.587.356.87.038.1.072.2.106.3.08.233.153.463.213.685.01.038.016.073.025.111Zm15.41,4.389c-.071.629-2.368,6.314-8.016,6.314-4.737,0-5.344-4.8-5.344-8.987a7.82,7.82,0,0,0-.075-1c-.014-.108-.033-.217-.051-.327q-.063-.372-.161-.76c-.031-.125-.058-.249-.094-.377-.094-.325-.2-.657-.332-1-.086-.23-.19-.469-.292-.706-.054-.124-.106-.247-.164-.373a33.966,33.966,0,0,0-4.371-6.8C4.113,26.594,1.781,23.17,1.781,17.229c0-4,2.273-6.291,6.235-6.291a9.169,9.169,0,0,1,9.22,6.357,3.212,3.212,0,0,0-.567.188c-.061.026-.12.064-.182.094a3.514,3.514,0,0,0-.38.215c-.071.047-.138.1-.207.157a3.735,3.735,0,0,0-.325.279c-.069.067-.134.14-.2.214a3.994,3.994,0,0,0-.277.354c-.06.086-.118.172-.173.266a4.37,4.37,0,0,0-.224.446c-.045.1-.091.2-.13.3a5.109,5.109,0,0,0-.161.582c-.023.1-.054.2-.072.3a6.115,6.115,0,0,0-.087,1.023c0,.382.017.742.041,1.092,0,.062.009.125.014.187a11.948,11.948,0,0,0,.318,1.948c.007.026.013.053.019.079.077.294.163.579.26.854.01.03.022.058.033.087q.122.335.263.655c.03.068.059.136.089.2.1.211.2.418.309.623.057.107.117.211.177.315s.12.209.183.313.139.23.211.343.159.244.241.366c.046.069.09.14.137.209l-.669.338a.874.874,0,0,0-.736-.421.886.886,0,0,0-.63.263.9.9,0,0,0-.261.636v.9c0,5.786,4.74,8.987,8.016,8.987a10.635,10.635,0,0,1,3.563.6v3.866Zm-8.214-13.7.426.564h0c.269.355.55.726.841,1.117a21.41,21.41,0,0,1,1.784,2.987A13.717,13.717,0,0,0,22.4,37.9c-.047,0-.089-.005-.136-.005a7,7,0,0,1-6.217-6.643ZM22.242,34.3a23.13,23.13,0,0,0-1.934-3.226c-.295-.4-.578-.772-.851-1.131-.418-.552-.794-1.055-1.144-1.545-.107-.15-.22-.3-.319-.449-.19-.278-.367-.552-.532-.826-.058-.1-.105-.193-.16-.29-.111-.2-.221-.394-.319-.594-.042-.086-.077-.174-.116-.26-.1-.22-.193-.442-.275-.672-.028-.078-.053-.158-.079-.238-.08-.247-.151-.5-.211-.765-.018-.078-.036-.157-.052-.237-.056-.277-.1-.568-.133-.87-.009-.082-.022-.16-.029-.244-.035-.385-.056-.789-.056-1.225,0-2.239,1.4-2.7,1.781-2.7a7.821,7.821,0,0,1,4.033,1.061l0,0,.523.285a8.283,8.283,0,0,0,4.347,1.347,8.282,8.282,0,0,0,4.347-1.347l.523-.285,0,0a7.821,7.821,0,0,1,4.033-1.061c.377,0,1.781.457,1.781,2.7,0,.436-.021.84-.056,1.225-.008.084-.02.162-.029.244-.034.3-.077.593-.133.87-.016.08-.034.159-.052.237-.06.264-.131.518-.211.765-.026.079-.051.159-.079.238-.082.23-.176.452-.275.672-.039.086-.074.174-.116.26-.1.2-.208.4-.319.594-.055.1-.1.193-.16.29-.165.274-.342.548-.532.826-.1.145-.212.3-.319.449-.35.49-.725.993-1.144,1.545-.272.359-.556.735-.851,1.131A23.126,23.126,0,0,0,31.2,34.3c-1.175,2.247-1.884,3.6-4.479,3.6S23.417,36.542,22.242,34.3Zm15.149-3.039A7,7,0,0,1,31.174,37.9c-.047,0-.089,0-.136.005a13.721,13.721,0,0,0,1.736-2.771,21.4,21.4,0,0,1,1.784-2.987c.291-.391.572-.762.841-1.117h0l.426-.564Zm4.745,5.7h0c-.055.12-.106.239-.157.357-.1.242-.21.485-.3.719-.128.339-.237.67-.33.993-.037.13-.064.255-.1.382-.064.257-.118.509-.16.755-.018.11-.037.22-.051.329a7.81,7.81,0,0,0-.075,1c0,4.185-.607,8.987-5.344,8.987-5.656,0-7.953-5.7-8.016-6.291V40.3a10.551,10.551,0,0,1,3.563-.6c3.277,0,8.016-3.2,8.016-8.987v-.9a.9.9,0,0,0-.261-.636.887.887,0,0,0-.63-.263.874.874,0,0,0-.736.421L36.895,29c.045-.066.087-.134.131-.2.084-.125.167-.25.247-.376s.142-.228.211-.343.123-.208.183-.313.12-.209.177-.315c.109-.2.212-.412.309-.623.031-.067.06-.135.089-.2q.141-.321.263-.655c.011-.029.022-.058.033-.087q.146-.412.26-.854c.007-.026.013-.052.019-.078A11.953,11.953,0,0,0,39.135,23c.005-.061.009-.124.014-.187.024-.35.041-.709.041-1.091A6.115,6.115,0,0,0,39.1,20.7c-.018-.107-.049-.2-.072-.3a5.1,5.1,0,0,0-.161-.583c-.039-.107-.085-.2-.13-.3a4.377,4.377,0,0,0-.224-.447c-.055-.093-.113-.18-.173-.266a3.993,3.993,0,0,0-.277-.354c-.066-.074-.131-.147-.2-.214a3.743,3.743,0,0,0-.325-.279c-.069-.053-.136-.109-.207-.157a3.485,3.485,0,0,0-.38-.216c-.061-.03-.12-.068-.181-.094a3.2,3.2,0,0,0-.567-.188,9.169,9.169,0,0,1,9.22-6.357c3.962,0,6.235,2.293,6.235,6.291,0,5.941-2.332,9.365-5.149,12.919A33.937,33.937,0,0,0,42.136,36.954ZM43,39.8c.009-.037.015-.072.025-.109.061-.225.134-.458.216-.695.033-.1.066-.192.1-.29.107-.287.225-.58.362-.883l.059-.129a22.44,22.44,0,0,1,1.211-2.26,2.694,2.694,0,0,1,1.168.687l-.025.039q-.1.157-.222.332c-.036.053-.076.109-.115.164-.055.078-.11.157-.169.239l-.136.187c-.062.084-.126.169-.191.255-.046.061-.091.121-.139.182q-.148.192-.306.386l-.108.131q-.15.181-.307.36c-.047.054-.1.106-.143.16q-.132.146-.267.289c-.049.052-.1.1-.149.156q-.162.166-.328.322c-.031.029-.061.06-.093.089q-.212.2-.427.372Zm8.66,13.381a.9.9,0,0,1-.891.9H47.206a.9.9,0,0,1-.891-.9v-2.7c0-1.233-.545-6.125-2.884-8.779.056-.037.11-.08.165-.118.081-.056.161-.113.241-.172s.178-.137.267-.208.158-.128.236-.194.171-.149.255-.225.152-.139.228-.211.163-.158.244-.239.144-.146.215-.22.156-.165.233-.249.135-.148.2-.222.149-.171.222-.256.122-.144.181-.216c.073-.088.143-.174.212-.261l.159-.2c.071-.092.139-.181.207-.269l.126-.168.091-.122A3.322,3.322,0,0,0,49.878,39.7a5.5,5.5,0,0,0,1.781-.284V53.177Z" transform="translate(0 -2.471)" fill="#fff"/>
      <path id="Path_134" data-name="Path 134" d="M153.951,364.813a1.2,1.2,0,0,0-.351.848c0,2.523.35,8.392,3.6,8.392,4.135,0,5.994-2.8,5.994-4.8,0-3.312-4.215-4.8-8.392-4.8A1.2,1.2,0,0,0,153.951,364.813Zm6.842,4.444c0,.506-.609,2.392-3.582,2.4-.472-.25-1.026-2.286-1.174-4.744C158.75,367.139,160.793,368.105,160.793,369.257Z" transform="translate(-138.421 -328.319)" fill="#fff"/>
    </g>
  </g>
</svg>
