<svg xmlns="http://www.w3.org/2000/svg" width="146.608" height="91.38" viewBox="0 0 146.608 91.38">
  <g id="syringe" transform="matrix(0.921, 0.391, -0.391, 0.921, 43.687, -29.656)">
    <path id="Path_105" data-name="Path 105" d="M1.638,436.2A1.638,1.638,0,0,1,.48,433.4l17.9-17.9a1.638,1.638,0,0,1,2.316,2.316l-17.9,17.9A1.633,1.633,0,0,1,1.638,436.2Z" transform="translate(0 -324.392)" fill="#bdc0c3"/>
    <rect id="Rectangle_6" data-name="Rectangle 6" width="11.048" height="18.402" transform="translate(90.911 13.085) rotate(45)" fill="#b3e7ff"/>
    <rect id="Rectangle_7" data-name="Rectangle 7" width="11.048" height="5.335" transform="translate(90.911 13.086) rotate(45)" opacity="0.15"/>
    <path id="Path_106" data-name="Path 106" d="M384.425.635l22.888,22.888a2.17,2.17,0,0,1,0,3.068l-1.844,1.844a2.17,2.17,0,0,1-3.068,0L379.512,5.548a2.17,2.17,0,0,1,0-3.068L381.356.635A2.17,2.17,0,0,1,384.425.635Z" transform="translate(-296.139 0)" fill="#76b7eb"/>
    <path id="Path_107" data-name="Path 107" d="M122.514,114.092l25.956,25.956-41.914,41.914a6.214,6.214,0,0,1-8.788,0L80.6,164.794a6.214,6.214,0,0,1,0-8.788Z" transform="translate(-61.577 -89.177)" fill="#b3e7ff"/>
    <path id="Path_108" data-name="Path 108" d="M108.9,176.42l25.956,25.956-28.3,28.3a6.214,6.214,0,0,1-8.788,0L80.6,213.511a6.214,6.214,0,0,1,0-8.788Z" transform="translate(-61.577 -137.894)" fill="#7fdbd5"/>
    <path id="Path_109" data-name="Path 109" d="M267.526,58.56,300.5,91.53a3.2,3.2,0,0,1,0,4.522l-3.366,3.366a3.2,3.2,0,0,1-4.522,0l-32.97-32.97a3.2,3.2,0,0,1,0-4.522L263,58.56A3.2,3.2,0,0,1,267.526,58.56Z" transform="translate(-202.207 -45.04)" fill="#76b7eb"/>
    <path id="Path_110" data-name="Path 110" d="M273.489,64.522l-5.962-5.962a3.2,3.2,0,0,0-4.522,0l-3.366,3.366a3.2,3.2,0,0,0,0,4.522l12.625,12.625C268.906,72.843,271.064,66.253,273.489,64.522Z" transform="translate(-202.207 -45.04)" opacity="0.15"/>
    <path id="Path_111" data-name="Path 111" d="M63.751,361.143l9.143,9.143a4.57,4.57,0,0,0,6.463,0l4.837-4.837L68.587,349.843l-4.837,4.837A4.57,4.57,0,0,0,63.751,361.143Z" transform="translate(-48.783 -273.446)" fill="#b3e7ff"/>
    <g id="Group_26" data-name="Group 26" transform="translate(32.685 42.97)">
      <path id="Path_112" data-name="Path 112" d="M177.143,256.015a1.638,1.638,0,0,1-1.158-2.8l30.137-30.137a1.638,1.638,0,0,1,2.316,2.316L178.3,255.536A1.633,1.633,0,0,1,177.143,256.015Z" transform="translate(-169.864 -216.961)" fill="#495059"/>
      <path id="Path_113" data-name="Path 113" d="M199.482,248.218a1.632,1.632,0,0,1-1.158-.48l-4.471-4.471a1.638,1.638,0,0,1,2.316-2.316l4.471,4.471a1.638,1.638,0,0,1-1.158,2.8Z" transform="translate(-183.83 -230.928)" fill="#495059"/>
      <path id="Path_114" data-name="Path 114" d="M155.782,291.917a1.632,1.632,0,0,1-1.158-.48l-4.471-4.471a1.638,1.638,0,1,1,2.316-2.316l4.471,4.471a1.638,1.638,0,0,1-1.158,2.8Z" transform="translate(-149.673 -265.084)" fill="#495059"/>
      <path id="Path_115" data-name="Path 115" d="M243.181,204.518a1.633,1.633,0,0,1-1.158-.48l-4.471-4.471a1.638,1.638,0,1,1,2.316-2.316l4.471,4.471a1.638,1.638,0,0,1-1.158,2.8Z" transform="translate(-217.986 -196.771)" fill="#495059"/>
    </g>
    <path id="Path_116" data-name="Path 116" d="M107.788,181.527,80.6,208.715a6.214,6.214,0,0,0,0,8.788l17.168,17.168a6.214,6.214,0,0,0,8.788,0l11.678-11.678C107.678,217.444,105.252,200.847,107.788,181.527Z" transform="translate(-61.577 -141.886)" opacity="0.15"/>
    <g id="Group_27" data-name="Group 27" transform="translate(25.986 54.27)" opacity="0.1">
      <ellipse id="Ellipse_23" data-name="Ellipse 23" cx="1.634" cy="1.634" rx="1.634" ry="1.634" transform="translate(36.268 11.048)"/>
      <ellipse id="Ellipse_24" data-name="Ellipse 24" cx="1.634" cy="1.634" rx="1.634" ry="1.634" transform="translate(25.779)"/>
      <ellipse id="Ellipse_25" data-name="Ellipse 25" cx="1.634" cy="1.634" rx="1.634" ry="1.634" transform="translate(12.635 32.069)"/>
      <ellipse id="Ellipse_26" data-name="Ellipse 26" cx="1.634" cy="1.634" rx="1.634" ry="1.634" transform="translate(0 14.077)"/>
    </g>
    <path id="Path_117" data-name="Path 117" d="M387.4,13.435c-.821-3.47.265-6.96,1.513-8.311L384.425.635a2.17,2.17,0,0,0-3.068,0l-1.844,1.844a2.17,2.17,0,0,0,0,3.068Z" transform="translate(-296.139)" opacity="0.15"/>
    <rect id="Rectangle_8" data-name="Rectangle 8" width="22.071" height="6.05" transform="translate(19.806 76.398) rotate(45)" opacity="0.1"/>
  </g>
</svg>
