<svg id="teeth" xmlns="http://www.w3.org/2000/svg" width="37.781" height="50.081" viewBox="0 0 37.781 50.081">
  <g id="Group_28" data-name="Group 28" transform="translate(0)">
    <path id="Path_121" data-name="Path 121" d="M101.781,9.39c0-4.441-3.448-9.39-8.4-9.39a30.071,30.071,0,0,0-5.479.54,27.337,27.337,0,0,1-5.016.5,27.335,27.335,0,0,1-5.016-.5A30.07,30.07,0,0,0,72.4,0C67.448,0,64,4.949,64,9.39c0,3,2.349,9.674,4.5,14-.853,5.077.426,22.269,3.314,25.815a2.081,2.081,0,0,0,1.628.88c3.589,0,3.9-4.41,4.227-9.079.441-6.291,1.072-10.744,5.219-10.744S87.669,34.711,88.109,41c.328,4.67.637,9.079,4.227,9.079a2.081,2.081,0,0,0,1.628-.88c2.888-3.546,4.168-20.737,3.314-25.814C99.432,19.064,101.781,12.39,101.781,9.39Z" transform="translate(-64)" fill="#fff"/>
  </g>
</svg>
