<svg id="Component_9_1" data-name="Component 9 – 1" xmlns="http://www.w3.org/2000/svg" width="202" height="201.807" viewBox="0 0 202 201.807">
  <g id="doctor_f" data-name="doctor f" transform="translate(0 -0.299)">
    <path id="Path_169" data-name="Path 169" d="M93.618,389.52H0l.231-30.212a18.566,18.566,0,0,1,10.821-16.735l59.278-32.886Z" transform="translate(0 -187.456)" fill="#f2f2f2"/>
    <path id="Path_170" data-name="Path 170" d="M117.493,323.953l15.634,27.009-14.306,13.843,20.405,24.714H164.8l-23.293-79.834Z" transform="translate(-71.189 -187.456)" fill="#cdd6e0"/>
    <path id="Path_171" data-name="Path 171" d="M368.62,389.552H275l23.663-79.813L357.576,342.6a18.606,18.606,0,0,1,10.863,16.735Z" transform="translate(-166.62 -187.489)" fill="#f2f2f2"/>
    <path id="Path_172" data-name="Path 172" d="M298.667,309.739l-23.659,79.813h25.584l20.4-24.714-14.3-13.843,15.68-27Z" transform="translate(-166.626 -187.489)" fill="#cdd6e0"/>
    <rect id="Rectangle_18" data-name="Rectangle 18" width="0.017" height="0.021" transform="translate(100.996 141.781)" fill="#ffd15c"/>
    <g id="Group_58" data-name="Group 58" transform="translate(70.325 122.225)">
      <path id="Path_173" data-name="Path 173" d="M333.515,313.28v.034l.034.009Z" transform="translate(-272.401 -311.859)" fill="#54c0eb"/>
      <path id="Path_174" data-name="Path 174" d="M217.143,326.688h-.088a35.176,35.176,0,0,1-7.2.87c-21.082-.4-30.936-16.95-31.41-17.883l23.293,79.838H216.5l23.651-79.788a35.511,35.511,0,0,1-23.007,16.962" transform="translate(-178.443 -309.675)" fill="#54c0eb"/>
      <path id="Path_175" data-name="Path 175" d="M333.515,324.907v.034l.034.013Z" transform="translate(-272.401 -318.904)" fill="#54c0eb"/>
      <path id="Path_176" data-name="Path 176" d="M178.827,324.92l.126-.059v-.05h-.017Z" transform="translate(-178.676 -318.846)" fill="#54c0eb"/>
    </g>
    <g id="Group_59" data-name="Group 59" transform="translate(146.598 121.636)">
      <path id="Path_177" data-name="Path 177" d="M372.08,308.231a.156.156,0,0,1-.1.05v-.1a.176.176,0,0,1,.1.05" transform="translate(-371.979 -308.181)" fill="#acb3ba"/>
      <path id="Path_178" data-name="Path 178" d="M372.6,308.181v.1a.148.148,0,0,1-.1-.05.161.161,0,0,1,.1-.05" transform="translate(-372.295 -308.181)" fill="#acb3ba"/>
    </g>
    <path id="Path_179" data-name="Path 179" d="M34.716,440.4H27.477v-21.41a17.009,17.009,0,0,1,34.017,0V440.4H54.251" transform="translate(-16.648 -243.38)" fill="none" stroke="#acb3ba" stroke-linecap="round" stroke-linejoin="round" stroke-miterlimit="10" stroke-width="1"/>
    <g id="Group_60" data-name="Group 60" transform="translate(14.78 193.677)">
      <path id="Path_180" data-name="Path 180" d="M44.2,497.679H40.572A3.07,3.07,0,0,1,37.5,494.61v-.559a3.066,3.066,0,0,1,3.069-3.065H44.2Z" transform="translate(-37.503 -490.982)" fill="#cdd6e0"/>
      <path id="Path_181" data-name="Path 181" d="M90.333,497.673H86.709v-6.7h3.624a3.065,3.065,0,0,1,3.065,3.065v.559a3.067,3.067,0,0,1-3.065,3.073" transform="translate(-67.317 -490.976)" fill="#cdd6e0"/>
    </g>
    <path id="Path_183" data-name="Path 183" d="M426.351,444.69a11.207,11.207,0,1,1-11.207-11.207,11.207,11.207,0,0,1,11.207,11.207" transform="translate(-244.744 -262.465)" fill="#cdd6e0"/>
    <path id="Path_184" data-name="Path 184" d="M428.651,451.3a6.907,6.907,0,1,1-6.907-6.907,6.907,6.907,0,0,1,6.907,6.907" transform="translate(-251.349 -269.076)" fill="#40596b"/>
    <g id="Group_61" data-name="Group 61" transform="translate(50.226 51.418)">
      <path id="Path_186" data-name="Path 186" d="M139.244,142.921c1.824,7.8.862,14.692-2.144,15.394s-6.915-5.057-8.735-12.855-.862-14.692,2.148-15.394,6.915,5.058,8.731,12.855" transform="translate(-127.443 -130.009)" fill="#f8b64c"/>
      <path id="Path_187" data-name="Path 187" d="M240.15,275.371V288.92s-6.84,14.76-23.482,18.623h-.093a33.531,33.531,0,0,1-7.3.942c-21.99-.446-30.83-19.565-30.83-19.565V275.526a42.875,42.875,0,0,0,13.255,7.1c.7.248,1.392.446,2.089.648a40.125,40.125,0,0,0,11.485,1.631h8a44.007,44.007,0,0,0,26.883-9.534" transform="translate(-158.344 -218.083)" fill="#f8b64c"/>
    </g>
    <g id="Group_63" data-name="Group 63" transform="translate(85.669 108.706)" opacity="0.1">
      <g id="Group_62" data-name="Group 62">
        <path id="Path_188" data-name="Path 188" d="M263.74,275.371V288.92s-6.84,14.76-23.482,18.623h-.093l-22.789-24.269a40.125,40.125,0,0,0,11.485,1.631h8a44.007,44.007,0,0,0,26.883-9.534" transform="translate(-217.376 -275.371)" fill="#40596b"/>
      </g>
    </g>
    <rect id="Rectangle_19" data-name="Rectangle 19" width="0.013" height="0.017" transform="translate(101.168 141.785)" fill="#ffd15c"/>
    <path id="Path_189" data-name="Path 189" d="M354.382,142.713c-1.82,7.8-.858,14.692,2.148,15.394s6.381-5.2,8.731-12.855c1.4-4.57.761-13.91-2.144-15.394-2.749-1.4-6.915,5.058-8.736,12.855" transform="translate(-214.16 -78.382)" fill="#f8b64c"/>
    <path id="Path_190" data-name="Path 190" d="M228.783,115.671c-12.632,40.083-42.9,43.122-42.9,43.122s-30.263-3.039-42.9-43.122c0,0-6.755-20.905-1.089-38.33,0,0,3.468-29.725,43.988-29.725s43.993,29.725,43.993,29.725c5.671,17.425-1.093,38.33-1.093,38.33" transform="translate(-84.602 -28.669)" fill="#ffd15c"/>
    <path id="Path_191" data-name="Path 191" d="M225.822,51.61C223.695,27.657,205.887,7.794,182.5,2.186a68.285,68.285,0,0,0-32.1.055C136.563,5.579,124.452,14.55,118.319,27.4c-11.821,24.764,4.326,46.225,4.326,46.225,5.28,28.64,1.728,31.183,1.728,31.183-13.368,23.062,7.352,30.414,7.352,30.414,14.183,2.346,27.745-6.016,27.745-6.016l4.574-.614c-19.585-6.36-37.405-28.956-38.343-54.241,0,0-2.051-13.347,4.107-17.45,0,0,7.718-3.317,10.283-30,0,0,8.45,19.48,25.9,23.331s22.326,7.184,22.326,7.184,17.963,11.035,21.044,36.182c0,0-4.671,25.7-34.681,35.61h4.843c24.4,9.69,26.576,9.438,31.1,4.6,9.942-10.631-1.341-18.505-1.341-18.505,14.768-26.458,17.963-47.742,16.542-63.691" transform="translate(-69.067 0)" fill="#40596b"/>
  </g>
  <g id="doctor_m" data-name="doctor m" transform="translate(0 0.29)">
    <path id="Path_151" data-name="Path 151" d="M202,135.853v30.384H0V135.853a19.489,19.489,0,0,1,12.41-18.18L55,100.924l33.246,36.532L98.681,116.2v-.042L101,111.4l2.361,4.76L113.8,137.456,147,100.924l42.635,16.749A19.56,19.56,0,0,1,202,135.853" transform="translate(0 35.281)" fill="#f2f2f2"/>
    <path id="Path_152" data-name="Path 152" d="M112.329,100.768h.042v-17.3a93.161,93.161,0,0,1-7.76,10.15l-4.124,4.545a20.158,20.158,0,0,1-14.771,6.523H79.4a20.136,20.136,0,0,1-14.771-6.523l-4.124-4.545a91.464,91.464,0,0,1-7.832-10.26v17.376l.067.034,25.965,14.645,3.83,2.146,3.83-2.146Z" transform="translate(18.466 29.124)" fill="#f8b64c"/>
    <g id="Group_54" data-name="Group 54" transform="translate(90.004 112.684)" opacity="0.1">
      <g id="Group_53" data-name="Group 53">
        <path id="Path_153" data-name="Path 153" d="M66.995,103.1l-.076-.025c-.042-.017-.088-.03-.131-.042s-.088-.025-.147-.046l15.87,11.787,24.922-14.056h.025l.017-17.208c-.042.063-5.917,7.76-7.76,10.054l-4.124,4.549a20.158,20.158,0,0,1-14.771,6.523H74.507a17.957,17.957,0,0,1-3.75-.4,19.489,19.489,0,0,1-3.763-1.136" transform="translate(-66.641 -83.508)" fill="#40596b"/>
      </g>
    </g>
    <g id="Group_55" data-name="Group 55" transform="translate(52.616 64.465)">
      <path id="Path_154" data-name="Path 154" d="M57.808,60.691c.656,7.554-3.009,14.047-8.185,14.494S39.7,69.878,39.035,62.324s3.009-14.039,8.194-14.494,9.923,5.3,10.58,12.861" transform="translate(-38.959 -47.805)" fill="#f8b64c"/>
      <path id="Path_155" data-name="Path 155" d="M115.471,62.331c-.657,7.554-5.4,13.311-10.58,12.857s-8.854-6.939-8.185-14.493,5.4-13.315,10.58-12.861,8.85,6.939,8.185,14.5" transform="translate(-18.742 -47.804)" fill="#f8b64c"/>
    </g>
    <path id="Path_156" data-name="Path 156" d="M129.045,74.668c-.8,8.459-4.8,27.1-20.869,45.362l-4.124,4.545A20.147,20.147,0,0,1,89.28,131.1H82.968A20.123,20.123,0,0,1,68.2,124.575l-4.124-4.545C48,101.766,44.041,83.122,43.2,74.668c-1.136-11.657-.673-26.47,0-30.3a43.518,43.518,0,0,1,85.85,0c.673,3.83,1.136,18.647,0,30.3" transform="translate(14.901 2.708)" fill="#ffd15c"/>
    <path id="Path_157" data-name="Path 157" d="M55.311,21.351S55.606-6.984,96.8,2.068c0,0,20.44,6.422,33.591,25.418,0,0,12.339,17.919,5.631,32.993-2.18,4.894-4.52,10.5-4.25,14.994,0,0-2.285-9.549-3.649-17.507a37.252,37.252,0,0,0-8.417-18.037l-.131-.156a28.843,28.843,0,0,0-28.856-9.4A51.828,51.828,0,0,0,73.647,38.71S56.485,27.192,48,47.354c0,0-3.779,14.738-3.245,26.378,0,0-23.621-49.461,10.554-52.382" transform="translate(12.902 0)" fill="#40596b"/>
    <path id="Path_158" data-name="Path 158" d="M123.815,115.065c-.084-.715-.248-7.276-1.6-9.928a15.09,15.09,0,0,0-11.278-8.206L97.39,94.2v2.778h-.042l-1.94,1.094,14.86,3.03a10.785,10.785,0,0,1,8.164,5.929,10.628,10.628,0,0,1,1.141,6.485l-.088,1.094c-17.8,15.445-22.851,29.374-23.062,30.005-1.338,4-1.258,7.154.215,9.427a6.5,6.5,0,0,0,4.667,2.9l.421-4.208a2.43,2.43,0,0,1-1.6-1.052c-.673-1.1-.593-3.114.295-5.686.042-.088,2.525-6.939,10.1-16.206a9.02,9.02,0,0,1,11.91,3.531c.838,12.166-1.01,19.321-1.052,19.362-.8,2.609-1.9,4.335-3.114,4.8a2.053,2.053,0,0,1-1.856-.084l-1.052,1.848-1.094,1.822a6.385,6.385,0,0,0,3.2.842,5.78,5.78,0,0,0,2.277-.463c2.525-.964,4.465-3.493,5.719-7.533.172-.631,4.082-15.322-1.646-38.847m-5.589,10.9a12.3,12.3,0,0,0-3.88-.5c1.818-1.982,3.83-4,6.106-6.056.631,2.942,1.094,5.761,1.431,8.417a12.493,12.493,0,0,0-3.657-1.86" transform="translate(33.447 32.922)" fill="#acb3ba"/>
    <g id="Group_56" data-name="Group 56" transform="translate(133.969 184.819)">
      <path id="Path_159" data-name="Path 159" d="M103.68,140.6a3.133,3.133,0,0,1-3.674,2.462c-1.683-.333-.484-6.464,1.208-6.131a3.129,3.129,0,0,1,2.466,3.67" transform="translate(-99.195 -136.919)" fill="#f8b64c"/>
      <path id="Path_160" data-name="Path 160" d="M107.64,141.678a3.124,3.124,0,0,0,1.536,4.141c1.57.72,4.175-4.957,2.605-5.681a3.128,3.128,0,0,0-4.141,1.54" transform="translate(-96.333 -135.891)" fill="#f8b64c"/>
    </g>
    <path id="Path_161" data-name="Path 161" d="M61.874,96.971l-.067-.034V94.193l-9.1,1.873a32.652,32.652,0,0,0-23.318,45.117l3.855-1.692a28.442,28.442,0,0,1,20.305-39.3l10.281-2.117Z" transform="translate(9.331 32.921)" fill="#acb3ba"/>
    <g id="Group_57" data-name="Group 57" transform="translate(55.003 129.85)">
      <path id="Path_162" data-name="Path 162" d="M120.781,102.573,89.727,143.31,74.784,113.052l3.83-2.146,25.965-14.645h.042l.042-.042Z" transform="translate(-28.786 -96.218)" fill="#cdd6e0"/>
      <path id="Path_163" data-name="Path 163" d="M40.726,102.573l31.1,40.737,14.893-30.258-3.83-2.146L56.928,96.261l-.084-.042Z" transform="translate(-40.726 -96.218)" fill="#cdd6e0"/>
    </g>
    <path id="Path_164" data-name="Path 164" d="M63.756,163.517l8.5-19.358-3.666-5.387-2.685-4.04,10.428-21.29,2.319-4.76,2.361,4.76v.042l10.437,21.248-2.735,4-3.666,5.425,8.547,19.358Z" transform="translate(22.351 38.001)" fill="#334a5e"/>
    <path id="Path_165" data-name="Path 165" d="M90.89,134.732l-2.735,4-10.02-20.5-10.1,20.537-2.685-4.04,10.428-21.29,2.319-4.76,2.361,4.76v.042Z" transform="translate(22.908 38.001)" fill="#2a4356"/>
    <path id="Path_166" data-name="Path 166" d="M44.415,136.339a9.532,9.532,0,1,1-9.536-9.528,9.54,9.54,0,0,1,9.536,9.528" transform="translate(8.887 44.356)" fill="#ff7058"/>
    <path id="Path_167" data-name="Path 167" d="M40.473,135.527a6.4,6.4,0,1,1-6.4-6.4,6.4,6.4,0,0,1,6.4,6.4" transform="translate(9.699 45.168)" fill="#f2f2f2"/>
    <path id="Path_168" data-name="Path 168" d="M38.06,135.029a4.486,4.486,0,1,1-4.478-4.482,4.48,4.48,0,0,1,4.478,4.482" transform="translate(10.197 45.666)" fill="#acb3ba"/>
  </g>
</svg>
